<?xml version="1.0" encoding="UTF-8"?>
<!DOCTYPE svg PUBLIC "-//W3C//DTD SVG 1.1//EN" "http://www.w3.org/Graphics/SVG/1.1/DTD/svg11.dtd">
<!-- Creator: CorelDRAW X8 -->
<svg xmlns="http://www.w3.org/2000/svg" xml:space="preserve" width="241.913mm" height="118.9mm" version="1.1" style="shape-rendering:geometricPrecision; text-rendering:geometricPrecision; image-rendering:optimizeQuality; fill-rule:evenodd; clip-rule:evenodd"
viewBox="0 0 24197 11893"
 xmlns:xlink="http://www.w3.org/1999/xlink">
 <defs>
  <style type="text/css">
   <![CDATA[
    .str0 {stroke:#C4C4C4;stroke-width:20.0046;stroke-linecap:round}
    .fil0 {fill:none}
    .fil6 {fill:#3C3D43}
    .fil3 {fill:#4661BB}
    .fil4 {fill:#D03B3E}
    .fil5 {fill:#3C3D43;fill-rule:nonzero}
    .fil2 {fill:#4661BB;fill-rule:nonzero}
    .fil1 {fill:#D03B3E;fill-rule:nonzero}
   ]]>
  </style>
 </defs>
 <g id="Слой_x0020_1">
  <metadata id="CorelCorpID_0Corel-Layer"/>
  <line class="fil0 str0" x1="13450" y1="5840" x2="22398" y2= "5840" />
  <line class="fil0 str0" x1="1678" y1="5840" x2="10746" y2= "5840" />
  <path class="fil1" d="M354 6883c314,0 423,47 459,166l44 0c-22,-174 -125,-299 -481,-299l-246 0c-56,0 -70,-17 -70,-61l0 -149c0,-46 10,-66 71,-66l565 0c92,0 118,13 118,108l32 0 0 -356 -32 0c0,95 -25,108 -118,108l-546 0c-93,0 -118,-13 -118,-108l-32 0 0 765 32 0c0,-95 25,-108 118,-108l204 0zm492 -1054l-32 0c0,95 -26,108 -118,108l-546 0c-92,0 -118,-13 -118,-108l-32 0 0 355 32 0c0,-95 25,-108 118,-108l546 0c93,0 118,13 118,108l32 0 0 -355zm-225 -731c-133,0 -199,71 -223,196l-3 0c-29,-92 -89,-155 -192,-155 -169,0 -203,159 -203,296l0 355 32 0c-2,-95 26,-107 118,-107l546 0c92,0 120,12 118,107l32 0 0 -355c0,-156 -28,-337 -225,-337zm-409 186c122,0 158,67 158,180l0 79 -220 0c-92,0 -92,-24 -92,-108 0,-106 50,-151 154,-151zm382 -41c133,0 194,60 194,192 0,87 -2,108 -92,108l-268 0 0 -79c0,-118 24,-221 166,-221zm252 -592l-32 0c0,95 -26,108 -118,108l-546 0c-92,0 -118,-13 -118,-108l-32 0 0 356 32 0c0,-96 25,-108 118,-108l546 0c93,0 118,12 118,108l32 0 0 -356z"/>
  <path class="fil2" d="M23501 4713c-92,0 -118,-12 -118,-108l-32 0 0 356 32 0c0,-95 25,-108 118,-108l546 0c93,0 118,13 118,108l32 0 0 -833 -32 0c0,95 -25,108 -118,108l-546 0c-93,0 -118,-13 -118,-108l-32 0 0 355 32 0c0,-95 25,-108 118,-108l566 0c56,0 70,17 70,61l0 211c0,46 -10,66 -71,66l-565 0zm463 938c180,0 233,-136 233,-292l0 -360 -32 0c1,95 -28,108 -118,108l-546 0c-90,0 -120,-13 -118,-108l-32 0 0 356 32 0c-2,-95 28,-108 118,-108l225 0c0,179 -4,404 238,404l0 0zm0 -145c-154,0 -180,-80 -180,-215l0 -44 263 0c69,0 92,4 92,77 0,127 -40,182 -175,182l0 0zm-613 944l32 0c0,-96 30,-122 117,-154l697 -259 0 -104 -681 -256c-88,-33 -133,-58 -133,-158l-32 0 0 310 32 0c0,-39 -2,-96 50,-96 17,0 34,5 49,12l129 48 0 329 -137 51c-15,5 -30,10 -47,10 -46,0 -44,-64 -44,-95l-32 0 0 362zm319 -350l0 -285 383 144 -383 141zm-94 1041c133,0 199,-71 223,-196l3 0c29,92 89,155 192,155 169,0 203,-159 203,-296l0 -356 -32 0c1,96 -26,108 -118,108l-546 0c-92,0 -120,-12 -118,-108l-32 0 0 356c0,156 28,337 225,337zm409 -186c-122,0 -158,-67 -158,-180l0 -79 220 0c92,0 92,24 92,108 0,106 -50,151 -154,151zm-383 41c-132,0 -193,-60 -193,-192 0,-87 2,-108 92,-108l268 0 0 79c0,118 -24,221 -167,221zm-251 592l32 0c0,-95 26,-108 118,-108l546 0c92,0 118,13 118,108l32 0 0 -356 -32 0c0,96 -25,108 -118,108l-546 0c-93,0 -118,-12 -118,-108l-32 0 0 356z"/>
  <path class="fil1" d="M2666 4070l0 -77 -345 0 0 260 39 0c219,3 242,18 235,71l71 0c1,-6 2,-14 2,-19 0,-70 -19,-115 -233,-125l-40 -2 0 -108 271 0zm0 -143l0 -77 -345 0 0 77 345 0zm0 -144l0 -150c0,-78 -30,-135 -102,-135 -43,0 -68,17 -81,45 -17,-20 -40,-34 -74,-34 -52,0 -88,29 -88,120l0 154 345 0zm-141 -146c0,-44 10,-59 34,-59 25,0 36,17 36,63l0 66 -70 0 0 -70zm-133 5c0,-42 12,-53 34,-53 18,0 29,16 29,46l0 72 -63 0 0 -65zm101 -176c103,0 179,-80 179,-179 0,-98 -77,-177 -179,-177 -102,0 -178,79 -178,177 0,101 79,179 178,179zm0 -80c-64,0 -104,-46 -104,-99 0,-50 40,-98 104,-98 65,0 105,44 105,98 0,53 -40,99 -105,99zm173 -323l0 -262 58 0 0 -71 -129 0 0 40 -274 0 0 76 274 0 0 140 -274 0 0 77 345 0zm0 -370l0 -269 -71 0 0 192 -69 0 0 -175 -70 0 0 175 -64 0 0 -188 -71 0 0 265 345 0zm0 -551l0 -77 -345 0 0 77 135 0 0 153 -135 0 0 77 345 0 0 -77 -138 0 0 -153 138 0zm-274 -109l0 -111 274 0 0 -76 -274 0 0 -111 -71 0 0 298 71 0zm274 -407l-108 0 0 -67c0,-109 -60,-146 -118,-146 -57,0 -119,29 -119,146l0 144 345 0 0 -77zm-274 -69c0,-48 20,-65 47,-65 29,0 47,20 47,68l0 66 -94 0 0 -69zm274 -252l-211 -168 211 0 0 -77 -345 0 0 64 211 168 -211 0 0 76 345 0 0 -63zm6 -444c0,-84 -42,-141 -113,-141 -29,0 -62,6 -78,46 -15,-26 -37,-35 -66,-35 -62,0 -100,46 -100,133 0,75 27,121 69,152l40 -59c-25,-23 -38,-48 -38,-88 0,-26 8,-61 36,-61 20,0 32,23 32,64l0 51 72 0 0 -54c0,-48 11,-72 37,-72 22,0 38,15 38,66 0,48 -16,81 -47,105l41 60c56,-38 77,-95 77,-167zm-6 -188l0 -77 -209 0 140 -93 0 -20 -138 -90 207 0 0 -77 -345 0 0 70 165 105 -165 110 0 72 345 0z"/>
  <path class="fil2" d="M21551 546l0 77 346 0 0 -307 -346 0 0 77 274 0 0 153 -274 0zm0 217l109 0 0 67c0,109 59,147 118,147 56,0 119,-29 119,-147l0 -143 -346 0 0 76zm274 69c0,49 -20,65 -47,65 -29,0 -47,-20 -47,-68l0 -66 94 0 0 69zm-274 116l0 79 64 28 0 145 -64 28 0 80 346 -152 0 -57 -346 -151zm232 179l-103 45 0 -90 103 45zm-232 211l0 151c0,78 30,135 103,135 43,0 67,-17 80,-45 17,19 40,33 74,33 52,0 89,-29 89,-119l0 -155 -346 0zm142 147c0,43 -11,59 -35,59 -25,0 -35,-17 -35,-63l0 -66 70 0 0 70zm132 -5c0,42 -11,53 -34,53 -18,0 -29,-16 -29,-47l0 -71 63 0 0 65zm-101 176c-103,0 -179,79 -179,178 0,99 77,178 179,178 103,0 179,-79 179,-178 0,-100 -79,-178 -179,-178zm0 79c64,0 105,47 105,99 0,50 -41,98 -105,98 -64,0 -105,-44 -105,-98 0,-52 41,-99 105,-99zm-173 324l0 262 -58 0 0 71 130 0 0 -40 274 0 0 -77 -274 0 0 -140 274 0 0 -76 -346 0zm0 370l0 269 72 0 0 -193 69 0 0 176 69 0 0 -176 64 0 0 188 72 0 0 -264 -346 0zm0 551l0 76 346 0 0 -76 -136 0 0 -154 136 0 0 -77 -346 0 0 77 138 0 0 154 -138 0zm274 108l0 111 -274 0 0 76 274 0 0 112 72 0 0 -299 -72 0zm-274 407l109 0 0 67c0,109 59,147 118,147 56,0 119,-29 119,-147l0 -143 -346 0 0 76zm274 69c0,48 -20,65 -47,65 -29,0 -47,-20 -47,-68l0 -66 94 0 0 69zm-274 252l211 168 -211 0 0 77 346 0 0 -64 -212 -167 212 0 0 -77 -346 0 0 63zm-6 444c0,84 42,142 114,142 28,0 61,-7 77,-47 15,26 37,35 66,35 63,0 101,-46 101,-133 0,-75 -28,-120 -70,-152l-40 60c26,22 38,48 38,88 0,26 -7,60 -36,60 -19,0 -32,-22 -32,-63l0 -52 -72 0 0 55c0,47 -11,72 -37,72 -22,0 -37,-16 -37,-67 0,-48 15,-80 47,-104l-41 -61c-57,38 -78,95 -78,167zm6 189l0 76 209 0 -139 93 0 20 137 90 -207 0 0 77 346 0 0 -69 -166 -105 166 -111 0 -71 -346 0z"/>
  <path class="fil1" d="M2640 11398l0 -77 -345 0 0 260 39 0c219,3 242,19 235,71l71 0c1,-6 2,-13 2,-19 0,-70 -19,-114 -233,-125l-40 -2 0 -108 271 0zm0 -143l0 -77 -345 0 0 77 345 0zm0 -143l0 -151c0,-78 -30,-135 -102,-135 -43,0 -68,17 -81,45 -17,-19 -40,-34 -74,-34 -52,0 -88,29 -88,120l0 155 345 0zm-141 -147c0,-44 10,-59 34,-59 25,0 36,17 36,63l0 66 -70 0 0 -70zm-133 5c0,-42 12,-53 34,-53 18,0 29,16 29,46l0 72 -63 0 0 -65zm101 -176c103,0 179,-80 179,-178 0,-99 -77,-178 -179,-178 -102,0 -178,79 -178,178 0,100 79,178 178,178zm0 -80c-64,0 -104,-46 -104,-98 0,-51 40,-99 104,-99 65,0 105,44 105,99 0,52 -40,98 -105,98zm173 -400l-108 0 0 -67c0,-109 -60,-146 -118,-146 -57,0 -119,29 -119,146l0 144 345 0 0 -77zm-274 -68c0,-49 20,-66 47,-66 29,0 47,21 47,68l0 66 -94 0 0 -68zm274 -116l0 -79 -64 -28 0 -145 64 -28 0 -80 -345 151 0 57 345 152zm-232 -179l103 -45 0 90 -103 -45zm290 -190l0 -72 -58 0 0 -222 58 0 0 -71 -129 0 0 40 -274 0 0 251 41 0c138,0 206,24 233,36l0 38 129 0zm-332 -147l0 -102 203 0 0 132c-35,-15 -101,-27 -184,-29l-19 -1zm274 -318l-211 -168 211 0 0 -77 -345 0 0 64 212 167 -212 0 0 77 345 0 0 -63zm0 -309l0 -77 -116 0 -25 -24 141 -118 0 -100 -192 160 -153 -150 0 99 134 133 -134 0 0 77 345 0zm0 -304l0 -79 -64 -28 0 -145 64 -28 0 -80 -345 151 0 57 345 152zm-232 -179l103 -45 0 90 -103 -45zm232 -437l0 -77 -345 0 0 260 39 0c219,3 242,19 235,71l71 0c1,-6 2,-13 2,-19 0,-70 -19,-115 -233,-125l-40 -2 0 -108 271 0zm0 -143l0 -77 -345 0 0 77 345 0zm6 -278c0,-84 -42,-142 -113,-142 -28,0 -62,6 -78,47 -15,-26 -37,-36 -66,-36 -62,0 -100,47 -100,134 0,75 27,120 69,151l40 -59c-25,-23 -38,-48 -38,-88 0,-26 8,-61 36,-61 20,0 32,23 32,64l0 51 72 0 0 -54c0,-47 11,-72 37,-72 22,0 38,16 38,67 0,47 -16,80 -47,104l41 61c56,-39 77,-96 77,-167zm-6 -189l0 -77 -209 0 140 -93 0 -20 -138 -90 207 0 0 -76 -345 0 0 69 165 105 -165 111 0 71 345 0z"/>
  <path class="fil2" d="M21551 7090l0 77 346 0 0 -307 -346 0 0 77 274 0 0 153 -274 0zm0 217l109 0 0 67c0,109 59,147 118,147 56,0 119,-29 119,-147l0 -143 -346 0 0 76zm274 69c0,49 -20,65 -47,65 -29,0 -47,-20 -47,-68l0 -66 94 0 0 69zm-274 116l0 79 64 28 0 145 -64 28 0 80 346 -152 0 -57 -346 -151zm232 179l-103 44 0 -89 103 45zm-232 211l0 151c0,78 30,134 103,134 43,0 67,-16 80,-44 17,19 40,33 74,33 52,0 89,-29 89,-119l0 -155 -346 0zm142 147c0,43 -11,58 -35,58 -25,0 -35,-16 -35,-62l0 -66 70 0 0 70zm132 -5c0,42 -11,53 -34,53 -18,0 -29,-16 -29,-47l0 -71 63 0 0 65zm-101 176c-103,0 -179,79 -179,178 0,99 77,178 179,178 103,0 179,-79 179,-178 0,-100 -79,-178 -179,-178zm0 79c64,0 105,47 105,99 0,50 -41,98 -105,98 -64,0 -105,-44 -105,-98 0,-52 41,-99 105,-99zm-173 400l109 0 0 67c0,109 59,147 118,147 56,0 119,-29 119,-147l0 -143 -346 0 0 76zm274 69c0,48 -20,65 -47,65 -29,0 -47,-20 -47,-68l0 -66 94 0 0 69zm-274 116l0 79 64 28 0 144 -64 29 0 80 346 -152 0 -57 -346 -151zm232 179l-103 44 0 -90 103 46zm-290 190l0 71 58 0 0 222 -58 0 0 72 130 0 0 -40 274 0 0 -252 -42 0c-138,0 -205,-23 -232,-36l0 -37 -130 0zm332 146l0 102 -202 0 0 -132c34,15 100,28 183,30l19 0zm-274 318l211 169 -211 0 0 76 346 0 0 -63 -212 -168 212 0 0 -76 -346 0 0 62zm0 310l0 76 116 0 25 25 -141 117 0 101 193 -160 153 150 0 -100 -135 -133 135 0 0 -76 -346 0zm0 303l0 80 64 28 0 144 -64 29 0 80 346 -152 0 -57 -346 -152zm232 180l-103 44 0 -90 103 46zm-232 436l0 77 346 0 0 -259 -39 -1c-220,-3 -242,-18 -236,-71l-71 0c-1,7 -2,14 -2,20 0,69 19,114 234,124l40 2 0 108 -272 0zm0 144l0 76 346 0 0 -76 -346 0zm-6 278c0,84 42,142 114,142 28,0 61,-7 77,-47 15,26 37,35 66,35 63,0 101,-46 101,-133 0,-75 -28,-121 -70,-152l-40 60c26,22 38,47 38,87 0,27 -7,61 -36,61 -19,0 -32,-22 -32,-63l0 -52 -72 0 0 54c0,48 -11,73 -37,73 -22,0 -37,-16 -37,-67 0,-48 15,-81 47,-104l-41 -61c-57,38 -78,95 -78,167zm6 189l0 76 209 0 -139 93 0 20 137 90 -207 0 0 77 346 0 0 -69 -166 -106 166 -110 0 -71 -346 0z"/>
  <line class="fil0 str0" x1="12096" y1="4714" x2="12096" y2= "945" />
  <path class="fil3" d="M12093 963c5329,-60 6374,7166 2135,9891 -220,114 -496,73 -673,-113 -243,-256 -202,-623 72,-834 1000,-769 1686,-2225 1686,-3706 0,-2160 -1459,-3554 -3220,-3554l-3 0 0 -1684 3 0z"/>
  <path class="fil4" d="M12090 2647c-1760,2 -3218,1395 -3218,3554 0,1461 669,2899 1647,3676 284,225 398,558 125,858 -179,197 -466,240 -693,116 -4213,-2718 -3218,-9886 2139,-9888l0 1684z"/>
  <path class="fil5" d="M10568 5502l41 0 0 -236 -170 0 0 53c0,132 -22,147 -48,144l0 39c5,0 10,1 14,1 38,1 74,-34 74,-167l0 -32 89 0 0 198zm104 0l41 0 0 -236 -41 0 0 236zm277 -236l-173 0 0 236 94 0c60,0 95,-23 95,-74 0,-44 -27,-70 -83,-70l-65 0 0 -53 132 0 0 -39zm-75 131c34,0 49,9 49,31 0,25 -17,35 -51,35l-55 0 0 -66 57 0zm141 105l178 0 0 -39 -137 0 0 -62 125 0 0 -37 -125 0 0 -59 134 0 0 -39 -175 0 0 236zm274 0l0 -81 54 0c74,0 98,-39 98,-77 0,-38 -18,-78 -97,-78l-96 0 0 236 41 0zm56 -198c40,0 54,17 54,39 0,25 -17,40 -56,40l-54 0 0 -79 56 0zm117 1l79 0 0 197 41 0 0 -197 79 0 0 -39 -199 0 0 39zm183 197l42 0 23 -52 107 0 23 52 42 0 -103 -236 -31 0 -103 236zm118 -177l39 90 -78 0 39 -90zm200 177l0 -81 54 0c73,0 98,-39 98,-77 0,-38 -19,-78 -98,-78l-95 0 0 236 41 0zm55 -198c40,0 55,17 55,39 0,25 -17,40 -57,40l-53 0 0 -79 55 0zm148 198l41 0 0 -236 -41 0 0 236zm80 0l42 0 23 -52 107 0 23 52 43 0 -104 -236 -30 0 -104 236zm118 -177l39 90 -77 0 38 -90zm323 177l41 0 0 -236 -41 0 0 98 -123 0 0 -98 -41 0 0 236 41 0 0 -100 123 0 0 100zm284 -67c-16,19 -39,30 -68,30 -48,0 -82,-32 -82,-81 0,-49 32,-81 80,-81 26,0 48,9 64,27l27 -26c-16,-23 -50,-40 -93,-40 -73,0 -120,53 -120,120 0,73 47,120 121,120 40,0 76,-16 95,-43l-24 -26zm46 -130l79 0 0 197 41 0 0 -197 79 0 0 -39 -199 0 0 39zm239 197l98 0c54,0 92,-20 92,-69 0,-30 -14,-48 -36,-55 17,-10 28,-28 28,-52 0,-35 -19,-60 -82,-60l-100 0 0 236zm98 -102c35,0 49,10 49,31 0,23 -15,32 -52,32l-54 0 0 -63 57 0zm-4 -95c35,0 46,10 46,30 0,17 -15,28 -41,28l-58 0 0 -58 53 0zm137 79c0,70 53,120 120,120 67,0 120,-51 120,-120 0,-70 -53,-120 -120,-120 -68,0 -120,52 -120,120zm42 0c0,-49 36,-81 78,-81 41,0 78,32 78,81 0,49 -34,81 -78,81 -42,0 -78,-32 -78,-81z"/>
  <path class="fil6" d="M12093 801c79,0 143,65 143,144 0,79 -64,143 -143,143 -80,0 -144,-64 -144,-143 0,-79 64,-144 144,-144z"/>
  <path class="fil6" d="M12096 5771c94,0 170,76 170,170 0,94 -76,170 -170,170 -94,0 -170,-76 -170,-170 0,-94 76,-170 170,-170z"/>
  <path class="fil6" d="M8870 2013c80,0 144,65 144,144 0,80 -64,145 -144,145 -79,0 -144,-65 -144,-145 0,-79 65,-144 144,-144z"/>
  <path class="fil6" d="M10221 1159c79,0 144,64 144,144 0,80 -65,144 -144,144 -80,0 -144,-64 -144,-144 0,-80 64,-144 144,-144z"/>
  <path class="fil6" d="M15745 2464c-79,0 -144,64 -144,144 0,79 65,144 144,144 80,0 145,-65 145,-144 0,-80 -65,-144 -145,-144z"/>
  <path class="fil6" d="M13625 1026c-79,0 -144,65 -144,145 0,79 65,144 144,144 80,0 145,-65 145,-144 0,-80 -65,-145 -145,-145z"/>
  <path class="fil5" d="M6609 1327c-16,19 -39,30 -68,30 -48,0 -81,-32 -81,-80 0,-49 31,-81 79,-81 26,0 47,10 63,27l27 -25c-16,-23 -49,-40 -92,-40 -72,0 -119,52 -119,119 0,72 47,119 120,119 40,0 75,-16 94,-43l-23 -26zm46 -21c0,52 38,90 92,90 55,0 93,-38 93,-90 0,-52 -38,-90 -93,-90 -55,0 -92,38 -92,90zm39 0c0,-34 23,-55 53,-55 30,0 54,22 54,55 0,34 -22,55 -54,55 -31,0 -53,-23 -53,-55zm189 87l145 0 0 40 35 0 0 -75 -23 0 0 -138 -38 0 0 138 -81 0 0 -138 -38 0 0 173zm219 0l38 0 0 -173 -38 0 0 173zm-3 -223c0,12 9,21 22,21 12,0 22,-9 22,-21 0,-11 -10,-20 -22,-20 -13,0 -22,9 -22,20zm114 100c17,-13 31,-19 50,-19 28,0 37,14 37,39 -8,-2 -23,-4 -36,-4 -46,0 -81,16 -81,55 0,33 25,54 63,54 26,0 44,-9 54,-21l0 19 38 0 0 -106c0,-45 -25,-71 -71,-71 -28,0 -56,10 -73,26l19 28zm42 92c-20,0 -32,-8 -32,-22 0,-17 18,-23 45,-23 13,0 25,3 32,5l0 17c-8,11 -22,23 -45,23zm253 31l38 0 0 -173 -136 0 0 49c0,81 -21,92 -39,90l3 36c43,3 73,-21 73,-113l0 -27 61 0 0 138zm95 -75l93 0 0 -34 -93 0 0 34zm362 75l38 0 0 -173 -38 0 0 173zm-4 -223c0,12 9,21 23,21 12,0 22,-9 22,-21 0,-11 -10,-20 -22,-20 -13,0 -23,9 -23,20zm248 -24c-32,10 -72,2 -103,17 -45,23 -56,67 -56,130 0,67 37,104 93,104 53,0 88,-38 88,-89 0,-53 -35,-80 -80,-80 -27,0 -50,7 -63,26 1,-26 10,-47 32,-57 26,-12 66,-5 95,-17l-6 -34zm-120 153c8,-19 26,-36 55,-36 31,0 48,19 48,47 0,30 -18,51 -49,51 -32,0 -54,-25 -54,-58l0 -4zm317 39c-10,14 -27,23 -46,23 -29,0 -51,-14 -54,-41l129 0c1,-11 2,-19 2,-25 0,-48 -35,-79 -82,-79 -58,0 -89,40 -89,90 0,55 38,90 93,90 29,0 53,-11 71,-35l-24 -23zm-52 -88c24,0 40,13 43,37l-91 0c5,-23 22,-37 48,-37zm126 210l38 0 0 -78c8,9 26,14 45,14 52,0 87,-39 87,-92 0,-52 -32,-88 -84,-88 -17,0 -37,6 -48,20l0 -16 -38 0 0 240zm82 -209c30,0 49,21 49,56 0,32 -21,54 -52,54 -17,0 -33,-7 -41,-21l0 -60c7,-15 22,-29 44,-29zm150 19c17,-13 31,-19 50,-19 28,0 37,14 37,39 -8,-2 -23,-4 -36,-4 -46,0 -81,16 -81,55 0,33 25,54 63,54 26,0 44,-9 54,-21l0 19 38 0 0 -106c0,-45 -26,-71 -71,-71 -28,0 -56,10 -73,26l19 28zm42 92c-20,0 -32,-8 -32,-22 0,-17 18,-23 45,-23 13,0 25,3 32,5l0 17c-8,11 -22,23 -45,23zm253 31l38 0 0 -173 -136 0 0 49c0,81 -21,92 -39,90l3 36c43,3 73,-21 73,-113l0 -27 61 0 0 138zm93 0l38 0 0 -173 -38 0 0 173zm-4 -223c0,12 9,21 23,21 12,0 22,-9 22,-21 0,-11 -10,-20 -22,-20 -13,0 -23,9 -23,20zm161 227c45,0 78,-21 78,-58 0,-17 -5,-29 -23,-39 13,-10 17,-22 17,-35 0,-29 -24,-50 -70,-50 -42,0 -67,21 -78,40l27 18c10,-13 23,-24 49,-24 17,0 33,7 33,21 0,11 -10,19 -24,19l-36 0 0 33 38 0c18,0 28,5 28,17 0,15 -16,24 -39,24 -24,0 -42,-11 -51,-28l-29 20c15,26 39,42 80,42zm121 -4l38 0 0 -108 57 70 54 -69 0 107 38 0 0 -173 -32 0 -60 79 -61 -79 -34 0 0 173zm-1506 0l38 0 0 -173 -136 0 0 49c0,81 -21,92 -39,90l3 36c43,3 73,-21 73,-113l0 -27 61 0 0 138z"/>
  <path class="fil5" d="M6807 2001c-16,19 -38,30 -68,30 -47,0 -81,-31 -81,-80 0,-49 32,-81 80,-81 25,0 46,10 62,27l27 -25c-16,-23 -49,-40 -91,-40 -73,0 -120,52 -120,119 0,72 47,119 120,119 40,0 75,-16 95,-43l-24 -26zm46 -20c0,51 39,89 92,89 55,0 93,-38 93,-89 0,-53 -38,-91 -93,-91 -54,0 -92,38 -92,91zm39 0c0,-34 23,-55 53,-55 30,0 54,21 54,55 0,33 -22,54 -54,54 -31,0 -53,-23 -53,-54zm190 86l144 0 0 40 35 0 0 -75 -23 0 0 -138 -38 0 0 138 -80 0 0 -138 -38 0 0 173zm218 0l38 0 0 -173 -38 0 0 173zm-3 -223c0,12 9,21 22,21 13,0 22,-9 22,-21 0,-11 -9,-20 -22,-20 -12,0 -22,9 -22,20zm114 100c17,-13 31,-18 50,-18 28,0 38,14 37,39 -8,-3 -23,-5 -35,-5 -46,0 -81,16 -81,55 0,33 25,54 63,54 25,0 43,-9 53,-21l0 19 38 0 0 -105c0,-46 -25,-72 -71,-72 -28,0 -56,10 -72,26l18 28zm42 92c-19,0 -32,-8 -32,-22 0,-17 18,-22 46,-22 12,0 24,2 31,4l0 17c-7,11 -22,23 -45,23zm254 31l38 0 0 -173 -137 0 0 50c0,80 -20,91 -39,89l3 36c43,3 73,-21 73,-112l0 -27 62 0 0 137zm94 -75l93 0 0 -34 -93 0 0 34zm-1509 472l35 0 0 -40 126 0 0 40 35 0 0 -75 -24 0 0 -138 -132 0 0 30c0,45 -4,80 -20,108l-20 0 0 75zm76 -178l58 0 0 103 -75 0c11,-21 17,-56 17,-89l0 -14zm287 83c-10,14 -27,23 -46,23 -29,0 -51,-14 -54,-42l129 0c1,-10 2,-18 2,-24 0,-48 -35,-79 -82,-79 -58,0 -88,39 -88,90 0,55 37,90 92,90 29,0 53,-12 71,-35l-24 -23zm-52 -88c24,0 40,12 43,36l-91 0c5,-22 22,-36 48,-36zm126 143l38 0 0 -109 57 71 54 -70 0 108 38 0 0 -173 -32 0 -60 78 -61 -78 -34 0 0 173zm230 -87c0,52 39,90 93,90 55,0 93,-38 93,-90 0,-52 -38,-90 -93,-90 -55,0 -93,38 -93,90zm40 0c0,-34 23,-55 53,-55 30,0 54,21 54,55 0,33 -22,55 -54,55 -32,0 -53,-24 -53,-55zm189 87l38 0 0 -59 13 -12 66 71 49 0 -88 -95 85 -78 -50 0 -75 70 0 -70 -38 0 0 173zm198 67l38 0 0 -78c7,9 26,14 45,14 52,0 87,-40 87,-93 0,-51 -32,-87 -84,-87 -18,0 -37,6 -48,19l0 -15 -38 0 0 240zm82 -209c30,0 48,20 48,55 0,33 -20,55 -51,55 -17,0 -33,-8 -41,-22l0 -60c7,-15 22,-28 44,-28zm150 18c16,-12 30,-18 49,-18 28,0 38,14 38,39 -8,-3 -24,-5 -36,-5 -46,0 -81,17 -81,55 0,34 25,55 63,55 26,0 43,-10 54,-21l0 19 38 0 0 -106c0,-45 -26,-71 -71,-71 -29,0 -57,9 -73,25l19 28zm41 93c-19,0 -32,-8 -32,-22 0,-17 19,-23 46,-23 12,0 25,2 32,5l0 16c-8,12 -23,24 -46,24zm117 -107l63 0 0 138 38 0 0 -138 63 0 0 -35 -164 0 0 35zm202 138l38 0 0 -173 -38 0 0 173zm-4 -223c0,12 9,21 23,21 12,0 22,-9 22,-21 0,-11 -10,-20 -22,-20 -13,0 -23,9 -23,20zm169 50c-57,0 -77,26 -77,57 0,27 15,47 40,53l-50 63 44 0 44 -57 32 0 0 57 38 0 0 -173 -71 0zm-38 58c0,-14 10,-23 35,-23l36 0 0 46 -37 0c-22,0 -34,-10 -34,-23z"/>
  <path class="fil5" d="M16621 2458l-48 0 -60 82 -60 -82 -48 0 84 115 -87 118 48 0 63 -86 62 86 49 0 -87 -118 84 -115zm39 300l38 0 0 -78c8,9 26,14 45,14 52,0 87,-40 87,-93 0,-51 -32,-87 -84,-87 -17,0 -37,6 -48,20l0 -16 -38 0 0 240zm82 -209c30,0 49,20 49,55 0,33 -21,55 -52,55 -17,0 -33,-8 -41,-22l0 -60c7,-14 22,-28 44,-28zm164 142l92 -113 0 113 38 0 0 -173 -33 0 -92 113 0 -113 -38 0 0 173 33 0zm314 -57c-9,15 -24,25 -43,25 -35,0 -58,-24 -58,-55 0,-33 23,-55 54,-55 19,0 32,7 44,23l28 -19c-11,-23 -38,-39 -74,-39 -54,0 -91,39 -91,90 0,55 38,90 93,90 30,0 60,-15 74,-43l-27 -17zm49 -81l63 0 0 138 38 0 0 -138 62 0 0 -35 -163 0 0 35zm231 138l92 -113 0 113 38 0 0 -173 -33 0 -92 113 0 -113 -38 0 0 173 33 0zm255 -173c-57,0 -77,27 -77,57 0,27 15,47 39,53l-50 63 45 0 44 -57 32 0 0 57 38 0 0 -173 -71 0zm-38 58c0,-13 10,-23 34,-23l37 0 0 46 -38 0c-21,0 -33,-10 -33,-23zm282 115l38 0 0 -173 -38 0 0 68 -84 0 0 -68 -38 0 0 173 38 0 0 -70 84 0 0 70zm222 -57c-10,15 -24,25 -44,25 -35,0 -57,-24 -57,-55 0,-33 22,-55 53,-55 20,0 33,7 44,23l29 -19c-12,-23 -39,-39 -75,-39 -54,0 -91,39 -91,90 0,55 38,90 93,90 30,0 60,-15 75,-43l-27 -17zm62 57l73 0c56,0 75,-30 75,-62 0,-33 -17,-61 -73,-61l-37 0 0 -50 -38 0 0 173zm72 -88c26,0 37,9 37,26 0,17 -10,27 -38,27l-33 0 0 -53 34 0zm117 88l38 0 0 -59 12 -12 67 71 48 0 -87 -95 84 -78 -49 0 -75 70 0 -70 -38 0 0 173zm211 -124c17,-12 31,-18 50,-18 28,0 37,14 37,39 -8,-3 -23,-5 -36,-5 -46,0 -81,17 -81,55 0,34 25,55 63,55 26,0 44,-10 54,-21l0 19 38 0 0 -106c0,-45 -25,-71 -71,-71 -28,0 -56,10 -73,26l19 27zm42 93c-20,0 -32,-8 -32,-22 0,-17 18,-23 45,-23 13,0 25,2 32,5l0 16c-8,12 -22,24 -45,24zm196 71l35 0 0 -40 126 0 0 40 35 0 0 -75 -24 0 0 -138 -132 0 0 30c0,45 -4,80 -20,108l-20 0 0 75zm76 -178l58 0 0 103 -75 0c11,-21 17,-56 17,-89l0 -14zm287 83c-10,14 -27,23 -46,23 -29,0 -51,-14 -54,-42l129 0c1,-10 2,-18 2,-24 0,-48 -35,-79 -82,-79 -58,0 -89,40 -89,90 0,55 38,90 93,90 29,0 53,-12 71,-35l-24 -23zm-52 -88c24,0 40,13 43,36l-91 0c5,-22 22,-36 48,-36zm126 143l38 0 0 -109 57 71 54 -70 0 108 38 0 0 -173 -32 0 -60 78 -61 -78 -34 0 0 173zm230 -87c0,52 39,90 93,90 55,0 93,-38 93,-90 0,-52 -38,-90 -93,-90 -55,0 -93,38 -93,90zm40 0c0,-34 23,-55 53,-55 30,0 54,21 54,55 0,33 -22,55 -54,55 -32,0 -53,-24 -53,-55zm189 87l38 0 0 -59 13 -12 66 71 49 0 -88 -95 85 -78 -50 0 -75 70 0 -70 -38 0 0 173zm198 67l38 0 0 -78c7,9 26,14 45,14 52,0 87,-40 87,-93 0,-51 -32,-87 -84,-87 -18,0 -37,6 -48,20l0 -16 -38 0 0 240zm82 -209c30,0 48,20 48,55 0,33 -20,55 -51,55 -17,0 -33,-8 -41,-22l0 -60c7,-14 22,-28 44,-28zm150 18c16,-12 30,-18 49,-18 28,0 38,14 38,39 -8,-3 -24,-5 -36,-5 -46,0 -81,17 -81,55 0,34 25,55 63,55 26,0 43,-10 54,-21l0 19 38 0 0 -106c0,-45 -26,-71 -71,-71 -29,0 -57,10 -73,26l19 27zm41 93c-19,0 -32,-8 -32,-22 0,-17 19,-23 46,-23 12,0 25,2 32,5l0 16c-8,12 -23,24 -46,24zm117 -107l63 0 0 138 38 0 0 -138 63 0 0 -35 -164 0 0 35zm202 138l38 0 0 -173 -38 0 0 173zm-4 -223c0,12 9,21 23,21 12,0 22,-9 22,-21 0,-11 -10,-20 -22,-20 -13,0 -23,9 -23,20zm169 50c-57,0 -77,27 -77,57 0,27 15,47 40,53l-50 63 44 0 44 -57 32 0 0 57 38 0 0 -173 -71 0zm-38 58c0,-13 10,-23 35,-23l36 0 0 46 -37 0c-22,0 -34,-10 -34,-23z"/>
  <path class="fil5" d="M14444 1254l40 0 0 -233 -40 0 0 96 -122 0 0 -96 -41 0 0 233 41 0 0 -99 122 0 0 99zm229 -55c-10,13 -27,22 -46,22 -29,0 -51,-13 -54,-41l129 0c1,-10 2,-18 2,-24 0,-48 -35,-79 -82,-79 -58,0 -89,39 -89,90 0,54 38,90 93,90 29,0 53,-12 71,-36l-24 -22zm-52 -88c24,0 40,12 43,36l-91 0c5,-22 22,-36 48,-36zm115 56c0,52 38,90 92,90 55,0 93,-38 93,-90 0,-52 -38,-90 -93,-90 -55,0 -92,38 -92,90zm39 0c0,-34 23,-55 53,-55 30,0 54,21 54,55 0,33 -22,54 -54,54 -31,0 -53,-23 -53,-54zm190 87l37 0 0 -59 13 -12 66 71 49 0 -87 -95 84 -78 -50 0 -75 70 0 -70 -37 0 0 173zm176 -87c0,52 39,90 93,90 55,0 93,-38 93,-90 0,-52 -38,-90 -93,-90 -55,0 -93,38 -93,90zm40 0c0,-34 23,-55 53,-55 30,0 54,21 54,55 0,33 -22,54 -54,54 -32,0 -53,-23 -53,-54zm311 87l38 0 0 -173 -38 0 0 68 -84 0 0 -68 -38 0 0 173 38 0 0 -70 84 0 0 70zm222 -57c-10,14 -24,24 -44,24 -35,0 -57,-23 -57,-54 0,-33 22,-55 53,-55 20,0 33,7 45,23l28 -19c-11,-23 -39,-39 -74,-39 -55,0 -92,39 -92,90 0,54 38,90 94,90 30,0 60,-15 74,-43l-27 -17zm185 2c-10,13 -28,22 -46,22 -29,0 -51,-13 -54,-41l128 0c2,-10 2,-18 2,-24 0,-48 -34,-79 -81,-79 -58,0 -89,39 -89,90 0,54 38,90 93,90 28,0 53,-12 70,-36l-23 -22zm-52 -88c24,0 40,12 43,36l-91 0c5,-22 22,-36 48,-36zm126 209l38 0 0 -78c7,10 26,15 45,15 52,0 87,-40 87,-93 0,-51 -32,-87 -84,-87 -18,0 -37,6 -48,19l0 -15 -38 0 0 239zm82 -208c30,0 48,20 48,55 0,33 -20,54 -51,54 -17,0 -33,-7 -41,-21l0 -60c7,-15 22,-28 44,-28zm131 142l82 0c44,0 70,-18 70,-52 0,-18 -8,-34 -24,-40 11,-9 19,-19 19,-35 0,-34 -25,-46 -73,-46l-74 0 0 173zm79 -72c23,0 34,6 34,19 0,13 -12,18 -35,18l-40 0 0 -37 41 0zm-6 -67c22,0 35,3 35,17 0,12 -10,17 -25,17l-45 0 0 -34 35 0zm140 15c17,-12 31,-18 50,-18 28,0 38,14 37,39 -8,-3 -23,-5 -35,-5 -46,0 -81,17 -81,55 0,33 25,55 63,55 25,0 43,-10 53,-21l0 19 38 0 0 -106c0,-45 -25,-71 -71,-71 -28,0 -56,9 -72,25l18 28zm42 93c-19,0 -32,-9 -32,-22 0,-17 18,-23 46,-23 12,0 24,2 31,5l0 16c-7,12 -22,24 -45,24zm117 -107l63 0 0 138 38 0 0 -138 62 0 0 -35 -163 0 0 35zm231 138l92 -113 0 113 38 0 0 -173 -33 0 -92 113 0 -113 -38 0 0 173 33 0zm246 4c45,0 79,-22 79,-59 0,-17 -6,-29 -23,-39 12,-9 17,-21 17,-34 0,-30 -25,-50 -71,-50 -42,0 -67,20 -78,39l27 18c11,-12 23,-23 49,-23 18,0 33,7 33,21 0,11 -9,18 -23,18l-37 0 0 33 39 0c17,0 27,6 27,18 0,14 -16,23 -38,23 -25,0 -42,-11 -52,-27l-29 20c16,26 39,42 80,42zm121 -4l38 0 0 -109 57 71 54 -70 0 108 38 0 0 -173 -31 0 -61 78 -61 -78 -34 0 0 173z"/>
  <path class="fil6" d="M9523 10402c80,0 145,64 145,144 0,79 -65,144 -145,144 -79,0 -144,-65 -144,-144 0,-80 65,-144 144,-144z"/>
  <path class="fil6" d="M8882 9812c80,0 144,65 144,144 0,80 -64,144 -144,144 -80,0 -144,-64 -144,-144 0,-79 64,-144 144,-144z"/>
  <path class="fil6" d="M15476 9617c-79,0 -144,64 -144,144 0,79 65,144 144,144 80,0 144,-65 144,-144 0,-80 -64,-144 -144,-144z"/>
  <path class="fil6" d="M16499 7828c-80,0 -145,65 -145,144 0,80 65,145 145,145 79,0 144,-65 144,-145 0,-79 -65,-144 -144,-144z"/>
  <path class="fil5" d="M7320 10634l41 0 23 -52 106 0 22 52 43 0 -102 -233 -31 0 -102 233zm117 -175l38 89 -77 0 39 -89zm272 175l38 0 0 -173 -38 0 0 68 -83 0 0 -68 -38 0 0 173 38 0 0 -70 83 0 0 70zm109 -123c16,-13 30,-19 49,-19 28,0 38,14 38,39 -8,-2 -24,-4 -36,-4 -46,0 -81,16 -81,54 0,34 25,55 63,55 26,0 43,-10 54,-21l0 19 38 0 0 -106c0,-45 -26,-71 -71,-71 -29,0 -57,10 -73,26l19 28zm41 92c-19,0 -32,-8 -32,-22 0,-17 19,-23 46,-23 12,0 25,3 32,5l0 16c-8,12 -23,24 -46,24zm134 98l38 0 0 -78c8,9 26,14 45,14 52,0 87,-40 87,-92 0,-52 -32,-88 -84,-88 -17,0 -37,6 -48,20l0 -16 -38 0 0 240zm82 -209c30,0 49,21 49,56 0,32 -21,54 -52,54 -17,0 -33,-8 -41,-22l0 -59c7,-15 22,-29 44,-29zm288 -31l-46 0 -43 56 -44 -56 -47 0 66 84 -69 89 45 0 48 -62 46 62 47 0 -69 -89 66 -84zm40 173l37 0 0 -173 -37 0 0 173zm-4 -223c0,12 9,21 23,21 12,0 21,-9 21,-21 0,-11 -9,-20 -21,-20 -13,0 -23,9 -23,20zm161 227c44,0 78,-22 78,-59 0,-17 -6,-28 -23,-38 12,-10 17,-22 17,-35 0,-29 -25,-50 -70,-50 -42,0 -67,21 -78,40l27 18c10,-13 23,-24 49,-24 17,0 33,7 33,21 0,11 -10,19 -24,19l-36 0 0 32 38 0c18,0 28,6 28,18 0,15 -16,24 -39,24 -24,0 -42,-11 -51,-28l-29 20c15,26 39,42 80,42zm121 -4l38 0 0 -108 57 70 53 -69 0 107 38 0 0 -173 -31 0 -61 79 -60 -79 -34 0 0 173z"/>
  <path class="fil5" d="M6467 10043l40 0 0 -81 21 -21 91 102 53 0 -113 -129 106 -104 -53 0 -105 102 0 -102 -40 0 0 233zm214 -87c0,52 39,90 93,90 54,0 93,-38 93,-90 0,-52 -39,-90 -93,-90 -55,0 -93,38 -93,90zm39 0c0,-34 23,-55 54,-55 30,0 53,21 53,55 0,33 -22,55 -53,55 -32,0 -54,-24 -54,-55zm190 87l38 0 0 -109 57 71 54 -70 0 108 38 0 0 -173 -32 0 -60 78 -61 -78 -34 0 0 173zm246 64c6,4 14,5 24,5 28,0 45,-17 68,-74l68 -168 -40 0 -46 117 -60 -117 -44 0 86 163 -6 15c-9,21 -18,29 -28,29 -3,0 -5,-1 -7,-2l-15 32zm312 -64l38 0 0 -173 -38 0 0 68 -83 0 0 -68 -38 0 0 173 38 0 0 -70 83 0 0 70zm93 0l38 0 0 -173 -38 0 0 173zm-3 -223c0,12 9,21 22,21 12,0 22,-9 22,-21 0,-12 -10,-20 -22,-20 -13,0 -22,8 -22,20zm160 227c45,0 79,-22 79,-59 0,-17 -6,-29 -23,-39 12,-9 17,-21 17,-34 0,-30 -25,-50 -71,-50 -42,0 -67,20 -78,39l27 18c11,-12 23,-23 49,-23 18,0 33,7 33,21 0,11 -9,18 -23,18l-37 0 0 33 39 0c17,0 27,6 27,18 0,15 -16,24 -38,24 -25,0 -42,-11 -52,-28l-29 20c16,26 39,42 80,42zm121 -4l38 0 0 -109 57 71 54 -70 0 108 38 0 0 -173 -31 0 -61 78 -61 -78 -34 0 0 173z"/>
  <path class="fil6" d="M7348 6186c80,0 144,65 144,145 0,79 -64,144 -144,144 -79,0 -144,-65 -144,-144 0,-80 65,-145 144,-145z"/>
  <path class="fil5" d="M5235 6367c-16,19 -38,31 -68,31 -47,0 -81,-32 -81,-81 0,-49 32,-81 80,-81 25,0 47,10 63,27l26 -25c-16,-23 -49,-40 -91,-40 -73,0 -119,52 -119,119 0,72 46,119 119,119 40,0 76,-16 95,-43l-24 -26zm46 -20c0,52 39,89 93,89 54,0 93,-37 93,-89 0,-53 -39,-91 -93,-91 -55,0 -93,38 -93,91zm39 0c0,-34 23,-55 54,-55 30,0 53,21 53,55 0,33 -22,54 -53,54 -32,0 -54,-23 -54,-54zm190 86l144 0 0 40 36 0 0 -75 -24 0 0 -138 -38 0 0 138 -80 0 0 -138 -38 0 0 173zm219 0l38 0 0 -173 -38 0 0 173zm-4 -223c0,13 9,21 23,21 12,0 22,-8 22,-21 0,-11 -10,-20 -22,-20 -13,0 -23,9 -23,20zm115 100c16,-13 30,-18 49,-18 28,0 38,14 38,39 -8,-3 -24,-5 -36,-5 -46,0 -81,16 -81,55 0,33 25,54 63,54 26,0 43,-9 54,-20l0 18 37 0 0 -105c0,-46 -25,-72 -70,-72 -29,0 -57,10 -73,26l19 28zm41 93c-19,0 -32,-9 -32,-22 0,-18 19,-23 46,-23 12,0 25,2 32,4l0 17c-8,12 -23,24 -46,24zm254 30l38 0 0 -173 -137 0 0 50c0,80 -20,91 -38,90l3 35c43,3 72,-20 72,-112l0 -27 62 0 0 137zm92 0l38 0 0 -173 -38 0 0 173zm-3 -223c0,13 9,21 22,21 13,0 22,-8 22,-21 0,-11 -9,-20 -22,-20 -12,0 -22,9 -22,20zm161 227c44,0 78,-21 78,-58 0,-17 -6,-29 -23,-39 12,-10 17,-22 17,-35 0,-29 -25,-50 -70,-50 -42,0 -67,21 -78,40l27 18c10,-13 23,-23 49,-23 17,0 33,6 33,21 0,11 -10,18 -24,18l-36 0 0 33 38 0c18,0 28,6 28,17 0,15 -16,24 -39,24 -24,0 -42,-11 -52,-27l-28 20c15,26 38,41 80,41zm121 -4l38 0 0 -108 57 71 53 -70 0 107 38 0 0 -173 -31 0 -61 79 -60 -79 -34 0 0 173z"/>
  <line class="fil0 str0" x1="12096" y1="10226" x2="12096" y2= "7169" />
  <path class="fil5" d="M10586 11544l40 0 0 -234 -40 0 0 97 -122 0 0 -97 -41 0 0 234 41 0 0 -99 122 0 0 99zm116 -124c16,-13 30,-18 49,-18 28,0 38,14 38,39 -8,-3 -24,-5 -36,-5 -46,0 -81,16 -81,55 0,33 25,55 63,55 26,0 43,-10 54,-21l0 19 38 0 0 -106c0,-46 -26,-72 -71,-72 -29,0 -57,10 -73,26l19 28zm41 93c-19,0 -32,-9 -32,-22 0,-18 19,-23 46,-23 12,0 25,2 32,4l0 17c-8,12 -23,24 -46,24zm134 31l144 0 0 39 36 0 0 -75 -24 0 0 -138 -38 0 0 138 -80 0 0 -138 -38 0 0 174zm219 0l38 0 0 -174 -38 0 0 174zm-4 -224c0,13 9,21 23,21 12,0 22,-8 22,-21 0,-11 -10,-20 -22,-20 -13,0 -23,9 -23,20zm88 137c0,52 39,90 93,90 54,0 93,-38 93,-90 0,-53 -39,-91 -93,-91 -55,0 -93,38 -93,91zm39 0c0,-34 23,-55 54,-55 30,0 53,21 53,55 0,33 -22,54 -53,54 -32,0 -54,-23 -54,-54zm311 87l38 0 0 -174 -38 0 0 68 -83 0 0 -68 -38 0 0 174 38 0 0 -71 83 0 0 71zm108 -124c17,-13 31,-18 50,-18 28,0 38,14 37,39 -8,-3 -23,-5 -35,-5 -46,0 -81,16 -81,55 0,33 25,55 63,55 25,0 43,-10 53,-21l0 19 38 0 0 -106c0,-46 -25,-72 -71,-72 -28,0 -56,10 -72,26l18 28zm42 93c-19,0 -32,-9 -32,-22 0,-18 18,-23 46,-23 12,0 24,2 31,4l0 17c-7,12 -22,24 -45,24zm254 31l38 0 0 -174 -137 0 0 50c0,80 -20,91 -39,90l3 35c43,4 73,-20 73,-112l0 -27 62 0 0 138zm94 -76l93 0 0 -34 -93 0 0 34zm285 19c-10,14 -24,24 -44,24 -35,0 -58,-23 -58,-54 0,-33 23,-55 54,-55 20,0 33,7 44,22l29 -18c-12,-23 -39,-40 -75,-40 -54,0 -91,39 -91,91 0,54 38,90 93,90 30,0 60,-15 75,-43l-27 -17zm45 -30c0,52 39,90 93,90 54,0 92,-38 92,-90 0,-53 -38,-91 -92,-91 -55,0 -93,38 -93,91zm39 0c0,-34 23,-55 54,-55 29,0 53,21 53,55 0,33 -22,54 -53,54 -32,0 -54,-23 -54,-54zm190 87l144 0 0 39 35 0 0 -75 -23 0 0 -138 -38 0 0 138 -80 0 0 -138 -38 0 0 174zm218 0l38 0 0 -174 -38 0 0 174zm-3 -224c0,13 9,21 22,21 13,0 22,-8 22,-21 0,-11 -9,-20 -22,-20 -12,0 -22,9 -22,20zm114 100c17,-13 31,-18 50,-18 28,0 38,14 37,39 -8,-3 -23,-5 -35,-5 -46,0 -81,16 -81,55 0,33 25,55 63,55 25,0 43,-10 53,-21l0 19 38 0 0 -106c0,-46 -25,-72 -71,-72 -28,0 -56,10 -72,26l18 28zm42 93c-19,0 -32,-9 -32,-22 0,-18 18,-23 46,-23 12,0 24,2 31,4l0 17c-7,12 -22,24 -45,24zm254 31l38 0 0 -174 -137 0 0 50c0,80 -20,91 -39,90l3 35c43,4 73,-20 73,-112l0 -27 62 0 0 138zm92 0l38 0 0 -174 -38 0 0 174zm-3 -224c0,13 9,21 22,21 13,0 22,-8 22,-21 0,-11 -9,-20 -22,-20 -12,0 -22,9 -22,20zm161 228c44,0 78,-22 78,-59 0,-17 -6,-29 -23,-39 12,-10 17,-22 17,-35 0,-29 -25,-50 -70,-50 -42,0 -67,21 -78,40l27 18c10,-13 23,-23 49,-23 17,0 33,6 33,21 0,11 -10,18 -24,18l-36 0 0 33 38 0c18,0 28,6 28,17 0,15 -16,24 -39,24 -24,0 -42,-11 -52,-27l-28 20c15,26 38,42 80,42zm121 -4l38 0 0 -109 57 71 53 -70 0 108 38 0 0 -174 -31 0 -61 79 -60 -79 -34 0 0 174z"/>
  <path class="fil6" d="M15022 1746c-79,0 -144,65 -144,144 0,80 65,145 144,145 80,0 144,-65 144,-145 0,-79 -64,-144 -144,-144z"/>
  <path class="fil5" d="M16181 1804l40 0 0 -82 21 -20 91 102 53 0 -113 -129 106 -105 -53 0 -105 103 0 -103 -40 0 0 234zm214 -87c0,52 39,90 93,90 54,0 93,-38 93,-90 0,-53 -39,-91 -93,-91 -55,0 -93,38 -93,91zm39 0c0,-34 23,-55 54,-55 30,0 53,21 53,55 0,33 -22,54 -53,54 -32,0 -54,-23 -54,-54zm311 87l38 0 0 -174 -38 0 0 68 -83 0 0 -68 -38 0 0 174 38 0 0 -71 83 0 0 71zm222 -57c-9,14 -24,24 -43,24 -35,0 -58,-23 -58,-54 0,-33 22,-55 54,-55 19,0 32,7 44,22l28 -18c-11,-23 -38,-40 -74,-40 -54,0 -91,39 -91,91 0,54 38,90 93,90 30,0 60,-15 74,-43l-27 -17zm186 1c-11,14 -28,23 -47,23 -28,0 -51,-14 -54,-41l129 0c1,-10 2,-19 2,-24 0,-48 -35,-80 -81,-80 -58,0 -89,40 -89,91 0,54 37,90 93,90 28,0 52,-12 70,-36l-23 -23zm-53 -87c24,0 41,12 44,36l-91 0c5,-22 21,-36 47,-36zm126 209l38 0 0 -78c8,10 26,15 46,15 52,0 86,-40 86,-93 0,-51 -32,-88 -84,-88 -17,0 -37,6 -48,20l0 -16 -38 0 0 240zm82 -208c30,0 49,20 49,55 0,32 -21,54 -52,54 -17,0 -32,-7 -41,-21l0 -60c7,-15 22,-28 44,-28zm132 142l82 0c44,0 70,-18 70,-52 0,-19 -8,-34 -25,-40 12,-9 20,-20 20,-36 0,-33 -25,-46 -73,-46l-74 0 0 174zm79 -72c23,0 33,5 33,19 0,13 -11,18 -34,18l-40 0 0 -37 41 0zm-6 -67c22,0 34,2 34,16 0,12 -9,18 -25,18l-44 0 0 -34 35 0zm140 15c17,-13 31,-18 50,-18 28,0 37,14 37,39 -8,-3 -23,-5 -36,-5 -46,0 -81,16 -81,55 0,33 25,55 63,55 26,0 44,-10 54,-21l0 19 38 0 0 -106c0,-46 -26,-72 -71,-72 -28,0 -56,10 -73,26l19 28zm42 93c-20,0 -32,-9 -32,-22 0,-18 18,-23 45,-23 13,0 25,2 32,4l0 17c-8,12 -22,24 -45,24zm117 -107l62 0 0 138 38 0 0 -138 63 0 0 -36 -163 0 0 36zm230 138l92 -113 0 113 38 0 0 -174 -33 0 -92 113 0 -113 -38 0 0 174 33 0zm247 4c45,0 78,-22 78,-59 0,-17 -5,-29 -23,-39 13,-10 17,-22 17,-35 0,-29 -24,-50 -70,-50 -42,0 -67,21 -78,40l27 18c10,-13 23,-23 49,-23 17,0 33,6 33,21 0,11 -10,18 -24,18l-36 0 0 33 38 0c18,0 28,6 28,17 0,15 -16,24 -39,24 -24,0 -42,-11 -51,-27l-29 20c15,26 39,42 80,42zm121 -4l38 0 0 -109 57 71 54 -70 0 108 38 0 0 -174 -32 0 -60 79 -61 -79 -34 0 0 174zm-2632 384c-37,-36 -61,-83 -61,-132 0,-43 16,-91 61,-133l-26 -22c-55,50 -74,108 -74,155 0,47 19,106 74,154l26 -22zm56 -168c16,-13 30,-19 49,-19 28,0 38,14 37,39 -8,-2 -23,-4 -35,-4 -46,0 -81,16 -81,55 0,33 25,54 63,54 26,0 43,-10 53,-21l0 19 38 0 0 -106c0,-45 -25,-71 -70,-71 -29,0 -57,10 -73,26l19 28zm41 92c-19,0 -32,-8 -32,-22 0,-17 19,-23 46,-23 12,0 24,3 31,5l0 17c-7,11 -22,23 -45,23zm255 31l38 0 0 -173 -38 0 0 68 -83 0 0 -68 -38 0 0 173 38 0 0 -70 83 0 0 70zm90 0l38 0 0 -138 92 0 0 -35 -130 0 0 173zm272 0l38 0 0 -173 -137 0 0 49c0,81 -20,92 -38,90l3 35c43,4 73,-20 73,-112l0 -27 61 0 0 138zm81 -87c0,52 39,90 93,90 55,0 93,-38 93,-90 0,-52 -38,-90 -93,-90 -55,0 -93,38 -93,90zm40 0c0,-34 23,-55 53,-55 30,0 54,22 54,55 0,34 -22,55 -54,55 -32,0 -53,-23 -53,-55zm322 30c-10,15 -24,25 -44,25 -35,0 -57,-23 -57,-55 0,-32 22,-55 53,-55 20,0 33,7 44,23l29 -19c-12,-23 -39,-39 -74,-39 -55,0 -92,39 -92,90 0,55 38,90 94,90 29,0 59,-15 74,-42l-27 -18zm81 -66c17,-13 31,-19 50,-19 28,0 37,14 37,39 -8,-2 -23,-4 -36,-4 -46,0 -80,16 -80,55 0,33 25,54 62,54 26,0 44,-10 54,-21l0 19 38 0 0 -106c0,-45 -25,-71 -71,-71 -28,0 -56,10 -72,26l18 28zm42 92c-20,0 -32,-8 -32,-22 0,-17 18,-23 45,-23 13,0 25,3 32,5l0 17c-8,11 -22,23 -45,23zm133 31l38 0 0 -59 13 -12 66 71 49 0 -87 -95 84 -78 -50 0 -75 70 0 -70 -38 0 0 173zm323 -57c-10,15 -24,25 -44,25 -35,0 -58,-23 -58,-55 0,-32 23,-55 54,-55 20,0 33,7 44,23l29 -19c-12,-23 -39,-39 -75,-39 -54,0 -91,39 -91,90 0,55 38,90 93,90 30,0 60,-15 75,-42l-27 -18zm45 -30c0,52 39,90 93,90 54,0 93,-38 93,-90 0,-52 -39,-90 -93,-90 -55,0 -93,38 -93,90zm39 0c0,-34 23,-55 54,-55 30,0 53,22 53,55 0,34 -22,55 -53,55 -32,0 -54,-23 -54,-55zm311 87l38 0 0 -173 -38 0 0 68 -83 0 0 -68 -38 0 0 173 38 0 0 -70 83 0 0 70zm222 -57c-9,15 -24,25 -43,25 -35,0 -58,-23 -58,-55 0,-32 22,-55 54,-55 19,0 32,7 44,23l28 -19c-11,-23 -38,-39 -74,-39 -55,0 -91,39 -91,90 0,55 37,90 93,90 30,0 60,-15 74,-42l-27 -18zm63 57l72 0c57,0 76,-30 76,-62 0,-32 -17,-61 -73,-61l-37 0 0 -50 -38 0 0 173zm71 -87c27,0 38,9 38,26 0,17 -10,26 -38,26l-33 0 0 -52 33 0zm117 87l38 0 0 -59 13 -12 66 71 49 0 -87 -95 84 -78 -50 0 -75 70 0 -70 -38 0 0 173zm231 0l92 -112 0 112 38 0 0 -173 -33 0 -92 113 0 -113 -38 0 0 173 33 0zm215 0l91 -112 0 112 38 0 0 -173 -33 0 -91 113 0 -113 -38 0 0 173 33 0zm-7 -247c1,35 26,52 59,52 30,0 56,-18 57,-52l-35 0c0,14 -7,23 -22,23 -16,0 -24,-9 -24,-23l-35 0zm200 314c55,-48 73,-108 73,-155 0,-46 -18,-104 -74,-154l-25 22c44,42 60,90 60,132 0,43 -19,96 -60,132l26 23z"/>
  <path class="fil6" d="M16152 3065c-80,0 -144,64 -144,144 0,79 64,144 144,144 79,0 144,-65 144,-144 0,-80 -65,-144 -144,-144z"/>
  <path class="fil5" d="M16969 3292l41 0 0 -233 -202 0 0 233 40 0 0 -195 121 0 0 195zm116 -124c17,-12 31,-18 50,-18 28,0 38,14 37,39 -8,-3 -23,-5 -35,-5 -46,0 -81,17 -81,55 0,34 25,55 63,55 25,0 43,-10 53,-21l0 19 38 0 0 -106c0,-45 -25,-71 -71,-71 -28,0 -56,9 -72,25l18 28zm42 93c-19,0 -32,-8 -32,-22 0,-17 18,-23 46,-23 12,0 24,2 31,5l0 16c-7,12 -22,24 -45,24zm254 31l37 0 0 -173 -136 0 0 49c0,80 -20,92 -39,90l3 35c43,4 73,-20 73,-112l0 -27 62 0 0 138zm221 -55c-11,14 -28,23 -47,23 -28,0 -50,-14 -53,-42l128 0c1,-10 2,-18 2,-24 0,-48 -35,-79 -81,-79 -58,0 -89,39 -89,90 0,55 37,90 93,90 28,0 52,-12 70,-35l-23 -23zm-53 -88c24,0 41,12 44,36l-91 0c5,-22 22,-36 47,-36zm115 56c0,52 39,90 93,90 54,0 93,-38 93,-90 0,-52 -39,-90 -93,-90 -55,0 -93,38 -93,90zm39 0c0,-34 23,-55 54,-55 30,0 53,21 53,55 0,33 -22,55 -53,55 -32,0 -54,-24 -54,-55zm190 87l38 0 0 -59 13 -12 66 71 49 0 -88 -95 85 -78 -50 0 -75 70 0 -70 -38 0 0 173zm177 -87c0,52 39,90 93,90 54,0 93,-38 93,-90 0,-52 -39,-90 -93,-90 -55,0 -93,38 -93,90zm39 0c0,-34 23,-55 54,-55 30,0 53,21 53,55 0,33 -22,55 -53,55 -32,0 -54,-24 -54,-55zm311 87l38 0 0 -173 -38 0 0 68 -83 0 0 -68 -38 0 0 173 38 0 0 -70 83 0 0 70zm222 -57c-9,15 -24,25 -43,25 -35,0 -58,-24 -58,-55 0,-33 22,-55 54,-55 19,0 32,7 44,23l28 -19c-11,-23 -38,-39 -74,-39 -55,0 -91,39 -91,90 0,55 37,90 93,90 30,0 60,-15 74,-43l-27 -17zm186 2c-11,14 -28,23 -47,23 -28,0 -51,-14 -54,-42l129 0c1,-10 2,-18 2,-24 0,-48 -35,-79 -81,-79 -58,0 -89,39 -89,90 0,55 37,90 93,90 28,0 52,-12 70,-35l-23 -23zm-53 -88c24,0 41,12 44,36l-91 0c5,-22 21,-36 47,-36zm126 210l38 0 0 -78c8,9 26,14 46,14 52,0 86,-40 86,-93 0,-51 -32,-87 -84,-87 -17,0 -37,6 -48,19l0 -15 -38 0 0 240zm82 -209c30,0 49,20 49,55 0,33 -21,55 -52,55 -17,0 -32,-8 -41,-22l0 -60c7,-15 22,-28 44,-28zm132 142l82 0c43,0 69,-18 69,-52 0,-18 -8,-34 -24,-40 12,-9 19,-19 19,-35 0,-34 -25,-46 -72,-46l-74 0 0 173zm79 -72c23,0 33,6 33,19 0,13 -11,19 -34,19l-40 0 0 -38 41 0zm-6 -67c22,0 34,3 34,17 0,12 -9,17 -25,17l-44 0 0 -34 35 0zm140 15c17,-12 30,-18 49,-18 28,0 38,14 38,39 -8,-3 -24,-5 -36,-5 -46,0 -81,17 -81,55 0,34 25,55 63,55 26,0 43,-10 54,-21l0 19 38 0 0 -106c0,-45 -26,-71 -71,-71 -28,0 -56,9 -73,25l19 28zm41 93c-19,0 -31,-8 -31,-22 0,-17 18,-23 45,-23 12,0 25,2 32,5l0 16c-8,12 -23,24 -46,24zm117 -107l63 0 0 138 38 0 0 -138 63 0 0 -35 -164 0 0 35zm231 138l92 -113 0 113 38 0 0 -173 -33 0 -92 113 0 -113 -38 0 0 173 33 0zm247 4c45,0 78,-22 78,-59 0,-17 -5,-29 -23,-39 13,-9 17,-21 17,-34 0,-30 -24,-50 -70,-50 -42,0 -67,20 -78,39l27 18c10,-12 23,-23 49,-23 17,0 33,7 33,21 0,11 -10,18 -24,18l-36 0 0 33 38 0c18,0 28,6 28,18 0,15 -16,24 -39,24 -24,0 -42,-11 -51,-28l-29 20c15,26 39,42 80,42zm121 -4l38 0 0 -109 57 71 53 -70 0 108 38 0 0 -173 -31 0 -60 78 -61 -78 -34 0 0 173z"/>
  <path class="fil6" d="M16447 3676c-80,0 -145,65 -145,144 0,80 65,144 145,144 79,0 144,-64 144,-144 0,-79 -65,-144 -144,-144z"/>
  <path class="fil5" d="M17143 3910l0 -80 54 0c72,0 97,-38 97,-76 0,-37 -19,-77 -97,-77l-94 0 0 233 40 0zm55 -195c40,0 54,16 54,38 0,24 -17,40 -56,40l-53 0 0 -78 55 0zm255 140c-10,14 -27,23 -46,23 -29,0 -51,-14 -54,-41l129 0c1,-11 2,-19 2,-25 0,-48 -35,-79 -82,-79 -57,0 -88,40 -88,90 0,55 37,90 92,90 29,0 53,-11 71,-35l-24 -23zm-52 -88c24,0 40,13 43,37l-90 0c5,-23 21,-37 47,-37zm238 143l38 0 0 -173 -137 0 0 49c0,81 -20,92 -38,90l3 36c43,3 73,-21 73,-113l0 -27 61 0 0 138zm93 0l38 0 0 -173 -38 0 0 173zm-4 -223c0,12 9,21 23,21 12,0 22,-9 22,-21 0,-11 -10,-20 -22,-20 -13,0 -23,9 -23,20zm96 223l38 0 0 -138 93 0 0 -35 -131 0 0 173zm169 0l38 0 0 -173 -38 0 0 173zm-3 -223c0,12 9,21 22,21 12,0 22,-9 22,-21 0,-11 -10,-20 -22,-20 -13,0 -22,9 -22,20zm128 223l92 -112 0 112 38 0 0 -173 -33 0 -92 113 0 -113 -38 0 0 173 33 0zm-6 -246c0,34 26,51 59,51 30,0 56,-18 57,-51l-35 0c0,13 -7,22 -22,22 -16,0 -24,-9 -24,-22l-35 0zm309 246l38 0 0 -173 -38 0 0 68 -83 0 0 -68 -38 0 0 173 38 0 0 -70 83 0 0 70zm93 0l38 0 0 -173 -38 0 0 173zm-3 -223c0,12 9,21 22,21 13,0 22,-9 22,-21 0,-11 -9,-20 -22,-20 -12,0 -22,9 -22,20zm293 223l38 0 0 -173 -157 0 0 173 38 0 0 -138 81 0 0 138zm90 67l38 0 0 -78c8,9 26,14 45,14 52,0 87,-39 87,-92 0,-52 -32,-88 -84,-88 -17,0 -37,6 -48,20l0 -16 -38 0 0 240zm82 -209c30,0 49,21 49,56 0,32 -21,54 -52,54 -17,0 -33,-7 -41,-21l0 -60c7,-15 22,-29 44,-29zm150 19c17,-13 31,-19 50,-19 28,0 37,14 37,39 -8,-2 -23,-4 -36,-4 -46,0 -81,16 -81,55 0,33 25,54 63,54 26,0 44,-9 54,-21l0 19 38 0 0 -106c0,-45 -25,-71 -71,-71 -28,0 -56,10 -73,26l19 28zm42 92c-20,0 -32,-8 -32,-22 0,-17 18,-23 45,-23 13,0 25,3 32,5l0 17c-8,11 -22,23 -45,23zm133 31l82 0c44,0 70,-17 70,-51 0,-19 -8,-34 -24,-41 12,-8 19,-19 19,-35 0,-34 -25,-46 -73,-46l-74 0 0 173zm80 -71c22,0 33,5 33,19 0,13 -12,18 -34,18l-41 0 0 -37 42 0zm-7 -68c22,0 35,3 35,17 0,12 -9,18 -25,18l-45 0 0 -35 35 0zm125 139l38 0 0 -173 -38 0 0 173zm-3 -223c0,12 9,21 22,21 13,0 22,-9 22,-21 0,-11 -9,-20 -22,-20 -12,0 -22,9 -22,20z"/>
  <path class="fil6" d="M16717 4561c-80,0 -145,65 -145,144 0,80 65,145 145,145 79,0 144,-65 144,-145 0,-79 -65,-144 -144,-144z"/>
  <path class="fil5" d="M17535 4796l40 0 0 -233 -40 0 0 96 -122 0 0 -96 -40 0 0 233 40 0 0 -99 122 0 0 99zm116 -124c17,-12 31,-18 50,-18 28,0 37,14 37,39 -8,-3 -23,-5 -36,-5 -45,0 -80,17 -80,55 0,34 25,55 62,55 26,0 44,-10 54,-21l0 19 38 0 0 -106c0,-45 -25,-71 -71,-71 -28,0 -56,9 -72,25l18 28zm42 93c-19,0 -32,-8 -32,-22 0,-17 18,-23 45,-23 13,0 25,2 32,5l0 16c-8,12 -22,24 -45,24zm133 31l145 0 0 40 35 0 0 -75 -23 0 0 -138 -38 0 0 138 -81 0 0 -138 -38 0 0 173zm219 0l38 0 0 -173 -38 0 0 173zm-3 -223c0,12 9,21 22,21 12,0 22,-9 22,-21 0,-12 -10,-20 -22,-20 -13,0 -22,8 -22,20zm87 136c0,52 39,90 93,90 55,0 93,-38 93,-90 0,-52 -38,-90 -93,-90 -55,0 -93,38 -93,90zm40 0c0,-34 23,-55 53,-55 30,0 54,21 54,55 0,33 -22,55 -54,55 -32,0 -53,-24 -53,-55zm311 87l38 0 0 -173 -38 0 0 68 -84 0 0 -68 -38 0 0 173 38 0 0 -70 84 0 0 70zm108 -124c17,-12 31,-18 50,-18 27,0 37,14 37,39 -8,-3 -23,-5 -36,-5 -46,0 -81,17 -81,55 0,34 25,55 63,55 26,0 43,-10 54,-21l0 19 38 0 0 -106c0,-45 -26,-71 -71,-71 -28,0 -56,9 -73,25l19 28zm42 93c-20,0 -32,-8 -32,-22 0,-17 18,-23 45,-23 13,0 25,2 32,5l0 16c-8,12 -22,24 -45,24zm253 31l38 0 0 -173 -136 0 0 49c0,80 -21,92 -39,90l3 35c43,4 73,-20 73,-112l0 -27 61 0 0 138zm95 -76l92 0 0 -33 -92 0 0 33zm258 76l38 0 0 -173 -136 0 0 49c0,80 -21,92 -39,90l3 35c43,4 73,-20 73,-112l0 -27 61 0 0 138zm93 0l38 0 0 -173 -38 0 0 173zm-3 -223c0,12 9,21 22,21 12,0 22,-9 22,-21 0,-12 -10,-20 -22,-20 -13,0 -22,8 -22,20zm247 -25c-32,10 -71,2 -102,18 -46,23 -57,66 -57,129 0,68 38,104 93,104 54,0 88,-38 88,-88 0,-53 -35,-81 -80,-81 -27,0 -50,8 -63,27 2,-27 10,-48 32,-58 26,-11 66,-4 95,-16l-6 -35zm-119 154c7,-19 26,-36 54,-36 31,0 48,19 48,47 0,29 -18,51 -49,51 -32,0 -53,-26 -53,-59l0 -3zm317 39c-11,14 -28,23 -47,23 -28,0 -51,-14 -54,-42l129 0c1,-10 2,-18 2,-24 0,-48 -35,-79 -81,-79 -58,0 -89,39 -89,90 0,55 37,90 93,90 28,0 52,-12 70,-35l-23 -23zm-53 -88c24,0 41,12 44,36l-91 0c5,-22 21,-36 47,-36zm126 209l38 0 0 -77c8,9 26,14 45,14 52,0 87,-40 87,-93 0,-51 -32,-87 -84,-87 -17,0 -37,6 -48,19l0 -15 -38 0 0 239zm82 -208c30,0 49,20 49,55 0,33 -21,55 -52,55 -17,0 -32,-8 -41,-22l0 -60c7,-15 22,-28 44,-28zm150 18c17,-12 31,-18 50,-18 28,0 37,14 37,39 -8,-3 -23,-5 -36,-5 -46,0 -81,17 -81,55 0,34 25,55 63,55 26,0 44,-10 54,-21l0 19 38 0 0 -106c0,-45 -25,-71 -71,-71 -28,0 -56,9 -73,25l19 28zm42 93c-20,0 -32,-8 -32,-22 0,-17 18,-23 45,-23 13,0 25,2 32,5l0 16c-8,12 -22,24 -45,24zm253 31l38 0 0 -173 -136 0 0 49c0,80 -21,92 -39,90l3 35c43,4 73,-20 73,-112l0 -27 61 0 0 138zm93 0l38 0 0 -173 -38 0 0 173zm-3 -223c0,12 9,21 22,21 12,0 22,-9 22,-21 0,-12 -10,-20 -22,-20 -13,0 -22,8 -22,20zm160 227c45,0 79,-22 79,-59 0,-17 -6,-29 -23,-39 12,-9 17,-21 17,-34 0,-30 -25,-50 -71,-50 -42,0 -67,20 -78,39l27 18c11,-12 23,-23 49,-23 18,0 33,7 33,21 0,11 -9,18 -23,18l-37 0 0 33 39 0c17,0 27,6 27,18 0,15 -16,24 -38,24 -25,0 -42,-11 -52,-28l-29 20c16,26 39,42 80,42zm121 -4l38 0 0 -109 57 71 54 -70 0 108 38 0 0 -173 -32 0 -60 78 -61 -78 -34 0 0 173z"/>
  <path class="fil6" d="M16831 5360c-80,0 -144,64 -144,144 0,80 64,144 144,144 79,0 144,-64 144,-144 0,-80 -65,-144 -144,-144z"/>
  <path class="fil5" d="M17649 5596l41 0 0 -233 -41 0 0 96 -122 0 0 -96 -40 0 0 233 40 0 0 -99 122 0 0 99zm116 -124c17,-12 31,-18 50,-18 28,0 38,14 37,39 -8,-3 -23,-5 -35,-5 -46,0 -81,17 -81,55 0,33 25,55 63,55 25,0 43,-10 53,-21l0 19 38 0 0 -106c0,-45 -25,-71 -71,-71 -28,0 -56,9 -72,25l18 28zm42 93c-19,0 -32,-8 -32,-22 0,-17 18,-23 46,-23 12,0 24,2 31,5l0 16c-7,12 -22,24 -45,24zm134 31l144 0 0 39 35 0 0 -74 -23 0 0 -138 -38 0 0 138 -80 0 0 -138 -38 0 0 173zm218 0l38 0 0 -173 -38 0 0 173zm-3 -223c0,12 9,21 22,21 13,0 22,-9 22,-21 0,-12 -9,-20 -22,-20 -12,0 -22,8 -22,20zm88 136c0,52 38,90 92,90 55,0 93,-38 93,-90 0,-52 -38,-90 -93,-90 -55,0 -92,38 -92,90zm39 0c0,-34 23,-55 53,-55 30,0 54,21 54,55 0,33 -22,54 -54,54 -31,0 -53,-23 -53,-54zm311 87l38 0 0 -173 -38 0 0 68 -83 0 0 -68 -38 0 0 173 38 0 0 -70 83 0 0 70zm108 -124c17,-12 31,-18 50,-18 28,0 37,14 37,39 -8,-3 -23,-5 -36,-5 -45,0 -80,17 -80,55 0,33 25,55 62,55 26,0 44,-10 54,-21l0 19 38 0 0 -106c0,-45 -25,-71 -71,-71 -28,0 -56,9 -72,25l18 28zm42 93c-20,0 -32,-8 -32,-22 0,-17 18,-23 45,-23 13,0 25,2 32,5l0 16c-8,12 -22,24 -45,24zm253 31l38 0 0 -173 -136 0 0 49c0,80 -21,91 -39,90l3 35c43,4 73,-20 73,-112l0 -27 61 0 0 138zm95 -76l93 0 0 -33 -93 0 0 33zm149 76l38 0 0 -59 13 -12 66 71 49 0 -87 -95 84 -78 -50 0 -75 70 0 -70 -38 0 0 173zm177 -87c0,52 39,90 93,90 55,0 93,-38 93,-90 0,-52 -38,-90 -93,-90 -55,0 -93,38 -93,90zm40 0c0,-34 23,-55 53,-55 30,0 54,21 54,55 0,33 -22,54 -54,54 -32,0 -53,-23 -53,-54zm310 87l38 0 0 -173 -38 0 0 68 -83 0 0 -68 -38 0 0 173 38 0 0 -70 83 0 0 70zm223 -57c-10,15 -24,24 -44,24 -35,0 -58,-23 -58,-54 0,-33 23,-55 54,-55 20,0 33,7 44,23l29 -19c-12,-23 -39,-39 -75,-39 -54,0 -91,39 -91,90 0,54 38,90 93,90 30,0 60,-15 75,-43l-27 -17zm185 2c-10,14 -28,22 -46,22 -29,0 -51,-13 -54,-41l128 0c2,-10 2,-18 2,-24 0,-48 -34,-79 -81,-79 -58,0 -89,39 -89,90 0,54 37,90 93,90 28,0 53,-12 70,-36l-23 -22zm-53 -88c25,0 41,12 44,36l-91 0c5,-22 22,-36 47,-36zm127 209l38 0 0 -78c7,10 26,15 45,15 52,0 87,-40 87,-93 0,-51 -32,-87 -84,-87 -18,0 -37,6 -48,19l0 -15 -38 0 0 239zm82 -208c30,0 48,20 48,55 0,33 -20,54 -51,54 -17,0 -33,-7 -41,-21l0 -60c7,-15 22,-28 44,-28zm131 142l82 0c44,0 70,-18 70,-52 0,-18 -8,-34 -25,-40 12,-9 20,-19 20,-35 0,-34 -25,-46 -73,-46l-74 0 0 173zm79 -72c23,0 33,6 33,19 0,13 -11,19 -34,19l-40 0 0 -38 41 0zm-6 -67c22,0 34,3 34,17 0,12 -9,17 -24,17l-45 0 0 -34 35 0zm140 15c17,-12 31,-18 50,-18 28,0 37,14 37,39 -8,-3 -23,-5 -36,-5 -46,0 -80,17 -80,55 0,33 25,55 62,55 26,0 44,-10 54,-21l0 19 38 0 0 -106c0,-45 -25,-71 -71,-71 -28,0 -56,9 -72,25l18 28zm42 93c-20,0 -32,-8 -32,-22 0,-17 18,-23 45,-23 13,0 25,2 32,5l0 16c-8,12 -22,24 -45,24zm117 -107l62 0 0 138 38 0 0 -138 63 0 0 -35 -163 0 0 35zm231 138l92 -113 0 113 38 0 0 -173 -33 0 -92 113 0 -113 -38 0 0 173 33 0zm246 4c45,0 79,-22 79,-59 0,-17 -6,-29 -23,-39 12,-9 17,-21 17,-34 0,-30 -25,-50 -71,-50 -42,0 -67,20 -78,39l27 18c11,-12 23,-23 49,-23 18,0 33,7 33,21 0,11 -9,18 -23,18l-37 0 0 33 39 0c17,0 27,6 27,18 0,15 -16,23 -38,23 -25,0 -42,-10 -52,-27l-29 20c16,26 39,42 80,42zm121 -4l38 0 0 -109 57 71 54 -70 0 108 38 0 0 -173 -32 0 -60 78 -61 -78 -34 0 0 173z"/>
  <path class="fil5" d="M20645 4363l-28 0 1 30 -30 -11 -8 27 30 8 -20 25 24 17 17 -25 17 25 23 -17 -19 -24 30 -9 -8 -26 -30 10 1 -30zm124 0l-28 0 1 30 -30 -11 -8 27 29 8 -19 25 24 17 16 -25 17 25 24 -17 -20 -24 30 -9 -8 -26 -29 10 1 -30zm123 0l-28 0 1 30 -30 -11 -8 27 30 8 -20 25 24 17 17 -25 17 25 23 -17 -19 -24 30 -9 -8 -26 -30 10 1 -30z"/>
  <path class="fil5" d="M21336 5207l-28 0 1 30 -30 -10 -8 26 30 9 -20 25 24 17 17 -25 17 24 23 -17 -19 -24 30 -9 -8 -26 -30 11 1 -31zm124 0l-28 0 1 30 -30 -10 -8 26 29 9 -19 25 24 17 16 -25 17 24 24 -17 -20 -24 30 -9 -8 -26 -29 11 1 -31zm123 0l-28 0 1 30 -30 -10 -8 26 30 9 -20 25 24 17 17 -25 17 24 23 -17 -19 -24 30 -9 -8 -26 -30 11 1 -31z"/>
  <path class="fil5" d="M17650 7886l40 0 0 -82 21 -20 91 102 53 0 -113 -129 106 -105 -53 0 -105 103 0 -103 -40 0 0 234zm229 -87c0,52 39,90 93,90 54,0 92,-38 92,-90 0,-53 -38,-91 -92,-91 -55,0 -93,38 -93,91zm39 0c0,-34 23,-55 54,-55 29,0 53,21 53,55 0,33 -22,54 -53,54 -32,0 -54,-23 -54,-54zm311 87l38 0 0 -174 -38 0 0 68 -83 0 0 -68 -38 0 0 174 38 0 0 -71 83 0 0 71zm222 -57c-9,14 -24,24 -43,24 -35,0 -58,-23 -58,-54 0,-33 22,-55 54,-55 19,0 32,7 44,22l28 -18c-11,-23 -38,-40 -74,-40 -55,0 -91,39 -91,91 0,54 37,90 93,90 30,0 60,-15 74,-43l-27 -17zm186 1c-11,14 -28,23 -47,23 -28,0 -51,-14 -54,-41l129 0c1,-10 2,-19 2,-24 0,-48 -35,-80 -81,-80 -58,0 -89,40 -89,91 0,54 37,90 93,90 28,0 52,-12 70,-36l-23 -23zm-53 -87c24,0 41,12 44,36l-91 0c5,-22 21,-36 47,-36zm126 209l38 0 0 -78c8,10 26,15 46,15 51,0 86,-40 86,-93 0,-51 -32,-88 -84,-88 -17,0 -37,6 -48,20l0 -16 -38 0 0 240zm82 -208c30,0 49,20 49,55 0,32 -21,54 -52,54 -17,0 -32,-7 -41,-21l0 -60c7,-15 22,-28 44,-28zm132 142l81 0c44,0 70,-18 70,-52 0,-19 -8,-34 -24,-40 12,-9 19,-20 19,-36 0,-33 -25,-46 -73,-46l-73 0 0 174zm79 -72c22,0 33,5 33,19 0,13 -12,18 -34,18l-41 0 0 -37 42 0zm-7 -67c22,0 35,2 35,16 0,12 -9,18 -25,18l-45 0 0 -34 35 0zm141 15c16,-13 30,-18 49,-18 28,0 38,14 38,39 -8,-3 -24,-5 -36,-5 -46,0 -81,16 -81,55 0,33 25,55 63,55 26,0 43,-10 54,-21l0 19 38 0 0 -106c0,-46 -26,-72 -71,-72 -29,0 -57,10 -73,26l19 28zm41 93c-19,0 -32,-9 -32,-22 0,-18 19,-23 46,-23 12,0 25,2 32,4l0 17c-8,12 -23,24 -46,24zm117 -107l63 0 0 138 38 0 0 -138 63 0 0 -36 -164 0 0 36zm231 138l92 -113 0 113 38 0 0 -174 -33 0 -92 113 0 -113 -38 0 0 174 33 0zm247 4c45,0 78,-22 78,-59 0,-17 -6,-29 -23,-39 12,-10 17,-22 17,-35 0,-29 -24,-50 -70,-50 -42,0 -67,21 -78,40l27 18c10,-13 23,-23 49,-23 17,0 33,6 33,21 0,11 -10,18 -24,18l-36 0 0 33 38 0c18,0 28,6 28,17 0,15 -16,24 -39,24 -24,0 -42,-11 -51,-27l-29 20c15,26 39,42 80,42zm121 -4l38 0 0 -109 57 71 53 -70 0 108 38 0 0 -174 -31 0 -61 79 -60 -79 -34 0 0 174zm-2569 384c-37,-36 -61,-83 -61,-132 0,-43 16,-91 61,-133l-26 -22c-55,50 -74,108 -74,155 0,47 19,106 74,154l26 -22zm3102 22c54,-48 73,-108 73,-155 0,-46 -19,-104 -74,-154l-25 22c44,42 60,90 60,132 0,43 -19,96 -60,132l26 23zm-3065 -67l38 0 0 -59 13 -12 66 71 48 0 -87 -95 84 -78 -49 0 -75 70 0 -70 -38 0 0 173zm177 -87c0,52 39,90 92,90 55,0 93,-38 93,-90 0,-52 -38,-90 -93,-90 -54,0 -92,38 -92,90zm39 0c0,-34 23,-55 53,-55 30,0 54,22 54,55 0,34 -22,55 -54,55 -31,0 -53,-23 -53,-55zm311 87l38 0 0 -173 -38 0 0 68 -83 0 0 -68 -38 0 0 173 38 0 0 -70 83 0 0 70zm73 -138l63 0 0 138 38 0 0 -138 62 0 0 -35 -163 0 0 35zm231 138l92 -112 0 112 38 0 0 -173 -33 0 -92 113 0 -113 -38 0 0 173 33 0zm303 0l38 0 0 -173 -38 0 0 68 -83 0 0 -68 -38 0 0 173 38 0 0 -70 83 0 0 70zm221 -55c-10,14 -27,23 -46,23 -29,0 -51,-14 -54,-41l129 0c1,-11 2,-19 2,-25 0,-48 -35,-79 -82,-79 -58,0 -88,40 -88,90 0,55 37,90 92,90 29,0 53,-12 71,-35l-24 -23zm-52 -88c24,0 40,13 43,37l-91 0c5,-23 22,-37 48,-37zm247 143l38 0 0 -173 -38 0 0 68 -83 0 0 -68 -38 0 0 173 38 0 0 -70 83 0 0 70zm73 -138l63 0 0 138 38 0 0 -138 63 0 0 -35 -164 0 0 35zm217 15c17,-13 31,-19 50,-19 28,0 37,14 37,39 -8,-2 -23,-4 -36,-4 -46,0 -81,16 -81,55 0,33 25,54 63,54 26,0 44,-10 54,-21l0 19 38 0 0 -106c0,-45 -25,-71 -71,-71 -28,0 -56,10 -73,26l19 28zm42 92c-20,0 -32,-8 -32,-22 0,-17 18,-23 45,-23 13,0 25,3 32,5l0 17c-8,11 -22,23 -45,23zm253 31l38 0 0 -173 -136 0 0 49c0,81 -21,92 -39,90l3 35c43,4 73,-20 73,-112l0 -27 61 0 0 138zm90 0l72 0c56,0 75,-30 75,-62 0,-32 -17,-61 -73,-61l-37 0 0 -50 -37 0 0 173zm71 -87c26,0 37,9 37,26 0,17 -10,26 -38,26l-33 0 0 -52 34 0zm238 87l38 0 0 -173 -38 0 0 68 -83 0 0 -68 -38 0 0 173 38 0 0 -70 83 0 0 70zm123 0l92 -112 0 112 38 0 0 -173 -33 0 -92 113 0 -113 -38 0 0 173 33 0zm214 0l92 -112 0 112 38 0 0 -173 -33 0 -92 113 0 -113 -38 0 0 173 33 0zm-6 -247c0,35 26,52 59,52 30,0 56,-18 57,-52l-35 0c0,14 -7,23 -22,23 -16,0 -24,-9 -24,-23l-35 0z"/>
  <path class="fil5" d="M16631 9669c7,4 15,6 22,6 29,0 45,-21 62,-55l86 -179 -43 0 -61 131 -82 -131 -50 0 111 173c-7,15 -14,23 -22,23 -3,0 -5,-1 -8,-2l-15 34zm286 5l38 0 0 -173 -136 0 0 49c0,80 -21,91 -39,90l3 35c43,4 73,-20 73,-112l0 -27 61 0 0 138zm89 0l73 0c56,0 75,-30 75,-62 0,-33 -17,-61 -73,-61l-37 0 0 -50 -38 0 0 173zm72 -88c26,0 37,9 37,26 0,17 -10,26 -38,26l-33 0 0 -52 34 0zm85 -50l62 0 0 138 38 0 0 -138 63 0 0 -35 -163 0 0 35zm198 204l38 0 0 -78c7,10 26,15 45,15 52,0 87,-40 87,-93 0,-51 -32,-87 -84,-87 -18,0 -37,6 -48,19l0 -15 -38 0 0 239zm82 -208c30,0 48,20 48,55 0,32 -20,54 -51,54 -17,0 -33,-7 -41,-21l0 -60c7,-15 22,-28 44,-28zm150 18c16,-12 30,-18 49,-18 28,0 38,14 38,39 -8,-3 -24,-5 -36,-5 -46,0 -81,17 -81,55 0,33 25,55 63,55 26,0 43,-10 54,-21l0 19 37 0 0 -106c0,-45 -25,-71 -70,-71 -29,0 -57,9 -73,25l19 28zm41 93c-19,0 -32,-9 -32,-22 0,-18 19,-23 46,-23 12,0 25,2 32,4l0 17c-8,12 -23,24 -46,24zm253 31l38 0 0 -173 -157 0 0 173 38 0 0 -138 81 0 0 138zm90 66l38 0 0 -78c7,10 26,15 45,15 52,0 87,-40 87,-93 0,-51 -32,-87 -84,-87 -18,0 -37,6 -48,19l0 -15 -38 0 0 239zm82 -208c30,0 48,20 48,55 0,32 -20,54 -51,54 -17,0 -33,-7 -41,-21l0 -60c7,-15 22,-28 44,-28zm150 18c16,-12 30,-18 49,-18 28,0 38,14 38,39 -8,-3 -24,-5 -36,-5 -46,0 -81,17 -81,55 0,33 25,55 63,55 26,0 43,-10 54,-21l0 19 38 0 0 -106c0,-45 -26,-71 -71,-71 -29,0 -57,9 -73,25l19 28zm41 93c-19,0 -32,-9 -32,-22 0,-18 19,-23 46,-23 12,0 25,2 32,4l0 17c-8,12 -23,24 -46,24zm134 31l82 0c44,0 70,-18 70,-52 0,-19 -8,-34 -24,-40 11,-9 19,-19 19,-35 0,-34 -25,-46 -73,-46l-74 0 0 173zm79 -72c23,0 34,5 34,19 0,13 -12,18 -35,18l-40 0 0 -37 41 0zm-6 -67c22,0 35,3 35,17 0,12 -10,17 -25,17l-45 0 0 -34 35 0zm155 139l91 -113 0 113 38 0 0 -173 -33 0 -91 112 0 -112 -38 0 0 173 33 0zm214 0l92 -113 0 113 38 0 0 -173 -33 0 -92 112 0 -112 -38 0 0 173 33 0zm-7 -247c1,35 27,52 59,52 31,0 57,-18 58,-52l-35 0c0,14 -8,23 -23,23 -15,0 -23,-10 -24,-23l-35 0zm-1938 586l38 0 0 -173 -38 0 0 68 -83 0 0 -68 -38 0 0 173 38 0 0 -70 83 0 0 70zm109 -123c16,-13 30,-19 49,-19 28,0 38,14 37,39 -8,-2 -23,-4 -35,-4 -46,0 -81,16 -81,55 0,33 25,54 63,54 26,0 43,-9 53,-21l0 19 38 0 0 -106c0,-45 -25,-71 -70,-71 -29,0 -57,10 -73,26l19 28zm41 92c-19,0 -32,-8 -32,-22 0,-17 19,-23 46,-23 12,0 24,3 31,5l0 17c-7,11 -22,23 -45,23zm134 31l144 0 0 40 35 0 0 -75 -23 0 0 -138 -38 0 0 138 -80 0 0 -138 -38 0 0 173zm218 0l38 0 0 -173 -38 0 0 173zm-3 -223c0,12 9,21 22,21 13,0 22,-9 22,-21 0,-11 -9,-20 -22,-20 -12,0 -22,9 -22,20zm88 136c0,52 38,90 92,90 55,0 93,-38 93,-90 0,-52 -38,-90 -93,-90 -55,0 -92,38 -92,90zm39 0c0,-34 23,-55 53,-55 30,0 54,22 54,55 0,34 -22,55 -54,55 -31,0 -53,-23 -53,-55zm311 87l38 0 0 -173 -38 0 0 68 -83 0 0 -68 -38 0 0 173 38 0 0 -70 83 0 0 70zm108 -123c17,-13 31,-19 50,-19 28,0 38,14 37,39 -8,-2 -23,-4 -35,-4 -46,0 -81,16 -81,55 0,33 25,54 63,54 25,0 43,-9 53,-21l0 19 38 0 0 -106c0,-45 -25,-71 -71,-71 -28,0 -56,10 -72,26l18 28zm42 92c-19,0 -32,-8 -32,-22 0,-17 18,-23 46,-23 12,0 24,3 31,5l0 17c-7,11 -22,23 -45,23zm253 31l38 0 0 -173 -136 0 0 49c0,81 -20,92 -39,90l3 36c43,3 73,-21 73,-113l0 -27 61 0 0 138zm93 0l38 0 0 -173 -38 0 0 173zm-3 -223c0,12 9,21 22,21 12,0 22,-9 22,-21 0,-11 -10,-20 -22,-20 -13,0 -22,9 -22,20zm160 227c45,0 79,-21 79,-58 0,-17 -6,-29 -23,-39 12,-10 17,-22 17,-35 0,-29 -25,-50 -71,-50 -42,0 -66,21 -77,40l26 18c11,-13 23,-24 49,-24 18,0 33,7 33,21 0,11 -9,19 -23,19l-37 0 0 33 39 0c17,0 27,5 27,17 0,15 -16,24 -38,24 -25,0 -42,-11 -52,-28l-28 20c15,26 38,42 79,42zm121 -4l38 0 0 -108 57 70 54 -69 0 107 38 0 0 -173 -31 0 -61 79 -61 -79 -34 0 0 173z"/>
  <path class="fil5" d="M18704 9255l-28 0 1 31 -30 -11 -8 26 30 9 -20 25 24 17 17 -25 16 25 24 -17 -19 -25 29 -8 -8 -27 -29 11 1 -31zm124 0l-29 0 1 31 -30 -11 -8 26 30 9 -19 25 23 17 17 -25 17 25 24 -17 -20 -25 30 -8 -8 -27 -30 11 2 -31zm123 0l-28 0 1 31 -30 -11 -8 26 30 9 -20 25 24 17 17 -25 16 25 24 -17 -19 -25 29 -8 -8 -27 -29 11 1 -31z"/>
  <path class="fil6" d="M11896 10948c-79,0 -144,64 -144,144 0,79 65,144 144,144 80,0 144,-65 144,-144 0,-80 -64,-144 -144,-144z"/>
  <path class="fil6" d="M12296 10948c-79,0 -144,64 -144,144 0,79 65,144 144,144 80,0 144,-65 144,-144 0,-80 -64,-144 -144,-144z"/>
  <path class="fil5" d="M11525 10796l40 0 0 -28 1 0c69,0 116,-39 116,-97 0,-66 -56,-97 -117,-97l0 -21 -40 0 0 21c-68,0 -117,34 -117,97 0,59 46,97 115,97l2 0 0 28zm40 -185c50,0 75,22 75,60 0,39 -30,59 -74,59l-1 0c0,0 0,-30 0,-119l0 0zm-116 60c0,-41 33,-60 76,-60l0 119 -2 0c-48,0 -74,-26 -74,-59zm294 -4c17,-13 31,-18 50,-18 28,0 37,14 37,39 -8,-3 -23,-5 -36,-5 -46,0 -81,16 -81,55 0,33 25,55 63,55 26,0 44,-10 54,-21l0 19 38 0 0 -106c0,-46 -25,-71 -71,-71 -28,0 -56,9 -73,25l19 28zm42 93c-20,0 -32,-9 -32,-22 0,-18 18,-23 45,-23 13,0 25,2 32,4l0 17c-8,12 -22,24 -45,24zm133 31l214 0 0 -174 -38 0 0 138 -50 0 0 -138 -38 0 0 138 -50 0 0 -138 -38 0 0 174zm298 0l92 -113 0 113 38 0 0 -174 -33 0 -92 113 0 -113 -38 0 0 174 33 0zm247 4c45,0 78,-22 78,-59 0,-17 -5,-29 -23,-39 13,-10 17,-22 17,-35 0,-29 -24,-49 -70,-49 -42,0 -67,20 -78,39l27 18c10,-13 23,-23 49,-23 17,0 33,6 33,21 0,11 -10,18 -24,18l-36 0 0 33 38 0c18,0 28,6 28,17 0,15 -16,24 -39,24 -24,0 -42,-11 -51,-27l-29 20c15,26 39,42 80,42zm121 -4l38 0 0 -109 57 71 54 -70 0 108 38 0 0 -174 -32 0 -60 79 -61 -79 -34 0 0 174z"/>
  <polygon class="fil5" points="17307,820 17278,820 17279,850 17249,839 17241,865 17271,874 17252,899 17275,916 17292,891 17309,916 17333,899 17313,874 17343,866 17335,839 17305,850 "/>
  <path class="fil5" d="M12611 10400l-29 0 1 30 -30 -10 -8 26 30 8 -19 25 23 17 17 -25 17 25 24 -17 -20 -24 30 -9 -8 -26 -30 10 2 -30zm123 0l-28 0 1 30 -30 -10 -8 26 30 8 -20 25 24 17 17 -25 16 25 24 -17 -19 -24 30 -9 -9 -26 -29 10 1 -30z"/>
  <path class="fil5" d="M13609 11136l-28 0 1 30 -30 -10 -8 26 30 8 -20 25 24 17 17 -25 17 25 23 -17 -19 -24 30 -9 -9 -26 -29 10 1 -30zm124 0l-29 0 1 30 -30 -10 -8 26 30 8 -19 25 23 17 17 -25 17 25 24 -17 -20 -24 30 -9 -8 -26 -29 10 1 -30z"/>
  <path class="fil6" d="M8164 8851c79,0 144,65 144,144 0,80 -65,144 -144,144 -80,0 -144,-64 -144,-144 0,-79 64,-144 144,-144z"/>
  <path class="fil5" d="M4748 8916l0 -80 54 0c73,0 97,-39 97,-77 0,-37 -18,-77 -97,-77l-94 0 0 234 40 0zm56 -196c39,0 53,16 53,39 0,24 -16,39 -56,39l-53 0 0 -78 56 0zm159 72c17,-13 31,-18 50,-18 28,0 37,14 37,39 -8,-3 -23,-5 -36,-5 -46,0 -81,16 -81,55 0,33 25,55 63,55 26,0 44,-10 54,-21l0 19 38 0 0 -106c0,-46 -25,-72 -71,-72 -28,0 -56,10 -73,26l19 28zm42 93c-20,0 -32,-9 -32,-22 0,-18 18,-23 45,-23 13,0 25,2 32,4l0 17c-8,12 -22,24 -45,24zm117 70l36 0 0 -39 126 0 0 39 35 0 0 -75 -25 0 0 -138 -132 0 0 30c0,45 -4,81 -20,108l-20 0 0 75zm76 -177l59 0 0 102 -75 0c10,-21 16,-56 16,-88l0 -14zm189 138l92 -113 0 113 38 0 0 -174 -33 0 -92 113 0 -113 -38 0 0 174 33 0zm181 0l38 0 0 -59 13 -13 66 72 49 0 -87 -95 84 -79 -50 0 -75 71 0 -71 -38 0 0 174zm212 -124c16,-13 30,-18 49,-18 28,0 38,14 38,39 -8,-3 -24,-5 -36,-5 -46,0 -81,16 -81,55 0,33 25,55 63,55 26,0 43,-10 54,-21l0 19 38 0 0 -106c0,-46 -26,-72 -71,-72 -29,0 -57,10 -73,26l19 28zm41 93c-19,0 -32,-9 -32,-22 0,-18 19,-23 46,-23 12,0 25,2 32,4l0 17c-8,12 -23,24 -46,24zm254 31l38 0 0 -174 -137 0 0 50c0,80 -20,91 -38,90l3 35c43,4 73,-20 73,-112l0 -27 61 0 0 138zm89 0l73 0c56,0 75,-30 75,-62 0,-33 -17,-61 -73,-61l-37 0 0 -51 -38 0 0 174zm72 -88c26,0 37,9 37,26 0,17 -10,26 -38,26l-33 0 0 -52 34 0zm238 88l38 0 0 -174 -38 0 0 68 -84 0 0 -68 -37 0 0 174 37 0 0 -71 84 0 0 71zm122 0l92 -113 0 113 38 0 0 -174 -33 0 -92 113 0 -113 -38 0 0 174 33 0zm215 0l92 -113 0 113 38 0 0 -174 -33 0 -92 113 0 -113 -38 0 0 174 33 0zm-7 -247c1,34 27,52 59,52 31,0 57,-18 58,-52l-35 0c0,13 -8,22 -23,22 -15,0 -23,-9 -24,-22l-35 0zm-2536 531c-11,14 -28,23 -47,23 -28,0 -51,-14 -54,-42l129 0c1,-10 2,-18 2,-24 0,-48 -35,-79 -81,-79 -58,0 -89,40 -89,90 0,55 37,90 93,90 28,0 52,-12 70,-35l-23 -23zm-53 -88c24,0 41,13 44,37l-91 0c5,-23 21,-37 47,-37zm247 143l38 0 0 -173 -38 0 0 68 -83 0 0 -68 -38 0 0 173 38 0 0 -70 83 0 0 70zm90 0l82 0c44,0 70,-18 70,-52 0,-18 -8,-33 -24,-40 11,-8 19,-19 19,-35 0,-34 -25,-46 -73,-46l-74 0 0 173zm79 -72c23,0 34,6 34,19 0,13 -12,19 -35,19l-40 0 0 -38 41 0zm-6 -67c22,0 35,3 35,17 0,12 -10,18 -25,18l-45 0 0 -35 35 0zm140 16c17,-13 31,-19 50,-19 28,0 38,14 37,39 -8,-2 -23,-4 -35,-4 -46,0 -81,16 -81,54 0,34 25,55 63,55 25,0 43,-10 53,-21l0 19 38 0 0 -106c0,-45 -25,-71 -71,-71 -28,0 -56,10 -72,26l18 28zm42 92c-19,0 -32,-8 -32,-22 0,-17 18,-23 46,-23 12,0 24,2 31,5l0 16c-7,12 -22,24 -45,24zm167 31l92 -112 0 112 38 0 0 -173 -33 0 -92 113 0 -113 -38 0 0 173 33 0zm-7 -247c1,35 26,52 59,52 30,0 57,-18 57,-52l-34 0c0,14 -8,23 -23,23 -16,0 -24,-9 -24,-23l-35 0zm188 314l38 0 0 -78c8,9 26,14 46,14 51,0 86,-40 86,-93 0,-51 -32,-87 -84,-87 -17,0 -37,6 -48,20l0 -16 -38 0 0 240zm82 -209c30,0 49,21 49,55 0,33 -21,55 -52,55 -17,0 -32,-8 -41,-22l0 -59c7,-15 22,-29 44,-29zm124 55c0,52 38,90 92,90 55,0 93,-38 93,-90 0,-52 -38,-90 -93,-90 -55,0 -92,38 -92,90zm39 0c0,-34 23,-55 53,-55 30,0 54,22 54,55 0,33 -22,55 -54,55 -32,0 -53,-24 -53,-55zm311 87l38 0 0 -173 -38 0 0 68 -84 0 0 -68 -38 0 0 173 38 0 0 -70 84 0 0 70zm89 0l38 0 0 -108 57 70 54 -69 0 107 38 0 0 -173 -31 0 -61 79 -61 -79 -34 0 0 173zm370 -55c-10,14 -27,23 -46,23 -28,0 -51,-14 -54,-42l129 0c1,-10 2,-18 2,-24 0,-48 -35,-79 -81,-79 -58,0 -89,40 -89,90 0,55 37,90 93,90 28,0 52,-12 70,-35l-24 -23zm-52 -88c24,0 40,13 43,37l-90 0c5,-23 21,-37 47,-37zm247 143l38 0 0 -173 -38 0 0 68 -83 0 0 -68 -38 0 0 173 38 0 0 -70 83 0 0 70zm73 -138l63 0 0 138 38 0 0 -138 63 0 0 -35 -164 0 0 35zm217 15c17,-13 31,-19 50,-19 28,0 37,14 37,39 -8,-2 -23,-4 -36,-4 -46,0 -81,16 -81,54 0,34 25,55 63,55 26,0 44,-10 54,-21l0 19 38 0 0 -106c0,-45 -25,-71 -71,-71 -28,0 -56,10 -73,26l19 28zm42 92c-20,0 -32,-8 -32,-22 0,-17 18,-23 45,-23 13,0 25,2 32,5l0 16c-8,12 -22,24 -45,24zm253 31l38 0 0 -173 -136 0 0 49c0,80 -21,92 -39,90l3 35c43,4 73,-20 73,-112l0 -27 61 0 0 138zm93 0l38 0 0 -173 -38 0 0 173zm-3 -223c0,12 9,21 22,21 12,0 22,-9 22,-21 0,-11 -10,-20 -22,-20 -13,0 -22,9 -22,20zm160 227c45,0 78,-22 78,-59 0,-17 -5,-28 -23,-38 13,-10 17,-22 17,-35 0,-29 -24,-50 -70,-50 -42,0 -67,21 -78,40l27 18c11,-13 23,-24 49,-24 18,0 33,7 33,21 0,11 -9,19 -23,19l-37 0 0 32 39 0c17,0 27,6 27,18 0,15 -16,24 -38,24 -25,0 -42,-11 -52,-28l-29 20c16,26 39,42 80,42zm121 -4l38 0 0 -108 57 70 54 -69 0 107 38 0 0 -173 -32 0 -60 79 -61 -79 -34 0 0 173z"/>
  <path class="fil6" d="M7786 8093c80,0 144,65 144,144 0,80 -64,144 -144,144 -79,0 -144,-64 -144,-144 0,-79 65,-144 144,-144z"/>
  <path class="fil5" d="M3328 8327l0 -79 54 0c72,0 97,-39 97,-77 0,-37 -18,-77 -97,-77l-94 0 0 233 40 0zm55 -195c40,0 54,16 54,39 0,24 -17,39 -56,39l-53 0 0 -78 55 0zm160 72c16,-13 30,-18 49,-18 28,0 38,14 38,39 -8,-3 -24,-5 -36,-5 -46,0 -81,16 -81,55 0,33 25,54 63,54 26,0 43,-9 54,-21l0 19 38 0 0 -105c0,-46 -26,-72 -71,-72 -29,0 -57,10 -73,26l19 28zm41 92c-19,0 -32,-8 -32,-22 0,-17 19,-22 46,-22 12,0 25,2 32,4l0 17c-8,11 -23,23 -46,23zm118 71l35 0 0 -40 126 0 0 40 36 0 0 -75 -25 0 0 -138 -132 0 0 30c0,45 -4,81 -20,108l-20 0 0 75zm76 -177l58 0 0 102 -75 0c11,-21 17,-56 17,-88l0 -14zm189 137l92 -112 0 112 37 0 0 -173 -32 0 -92 113 0 -113 -38 0 0 173 33 0zm181 0l38 0 0 -59 13 -12 66 71 49 0 -88 -94 85 -79 -50 0 -75 71 0 -71 -38 0 0 173zm211 -123c17,-13 31,-18 50,-18 28,0 38,14 37,39 -8,-3 -23,-5 -35,-5 -46,0 -81,16 -81,55 0,33 25,54 63,54 25,0 43,-9 53,-21l0 19 38 0 0 -105c0,-46 -25,-72 -71,-72 -28,0 -56,10 -72,26l18 28zm42 92c-19,0 -32,-8 -32,-22 0,-17 18,-22 46,-22 12,0 24,2 31,4l0 17c-7,11 -22,23 -45,23zm254 31l38 0 0 -173 -137 0 0 50c0,80 -20,91 -39,89l3 36c43,3 73,-21 73,-112l0 -27 62 0 0 137zm89 0l72 0c57,0 76,-30 76,-62 0,-32 -17,-60 -73,-60l-37 0 0 -51 -38 0 0 173zm71 -87c27,0 38,9 38,26 0,17 -10,26 -38,26l-33 0 0 -52 33 0zm238 87l38 0 0 -173 -38 0 0 68 -83 0 0 -68 -38 0 0 173 38 0 0 -70 83 0 0 70zm123 0l92 -112 0 112 38 0 0 -173 -33 0 -92 113 0 -113 -38 0 0 173 33 0zm215 0l92 -112 0 112 38 0 0 -173 -33 0 -92 113 0 -113 -38 0 0 173 33 0zm-7 -246c1,34 26,52 59,52 30,0 57,-18 57,-52l-34 0c0,13 -8,22 -23,22 -16,0 -24,-9 -24,-22l-35 0zm353 313l38 0 0 -63 2 0c59,0 92,-38 92,-90 0,-51 -35,-90 -92,-90l-2 0 0 -67 -38 0 0 67 -3 0c-59,0 -92,43 -92,90 0,52 34,90 93,90l2 0 0 63zm-56 -153c0,-32 17,-54 53,-54l3 0 0 108 -2 0c-35,0 -54,-20 -54,-54zm96 -54c36,0 53,22 53,54 0,34 -16,54 -53,54l-2 0 0 -108 2 0zm266 85c-10,14 -27,23 -46,23 -29,0 -51,-14 -54,-41l129 0c1,-10 2,-19 2,-24 0,-48 -35,-80 -82,-80 -58,0 -88,40 -88,91 0,54 37,89 92,89 29,0 53,-11 71,-35l-24 -23zm-52 -87c24,0 40,12 43,36l-91 0c5,-22 22,-36 48,-36zm126 142l38 0 0 -108 57 70 54 -69 0 107 38 0 0 -173 -32 0 -60 79 -61 -79 -34 0 0 173zm242 0l38 0 0 -173 -38 0 0 173zm-4 -223c0,12 9,21 23,21 12,0 22,-9 22,-21 0,-11 -10,-20 -22,-20 -13,0 -23,9 -23,20zm217 223l38 0 0 -173 -38 0 0 68 -83 0 0 -68 -38 0 0 173 38 0 0 -70 83 0 0 70zm93 0l38 0 0 -173 -38 0 0 173zm-3 -223c0,12 9,21 22,21 13,0 22,-9 22,-21 0,-11 -9,-20 -22,-20 -12,0 -22,9 -22,20zm161 227c44,0 78,-21 78,-58 0,-17 -6,-29 -23,-39 12,-10 17,-22 17,-35 0,-29 -25,-50 -70,-50 -42,0 -67,21 -78,40l27 18c10,-13 23,-23 49,-23 17,0 33,6 33,21 0,11 -10,18 -24,18l-36 0 0 33 38 0c18,0 28,5 28,17 0,15 -16,24 -39,24 -24,0 -42,-11 -52,-28l-28 20c15,26 38,42 80,42zm121 -4l38 0 0 -108 56 70 54 -69 0 107 38 0 0 -173 -31 0 -61 79 -60 -79 -34 0 0 173z"/>
  <path class="fil5" d="M7101 8837l-29 0 1 30 -29 -11 -9 26 30 9 -19 25 24 17 16 -25 17 25 24 -17 -20 -25 30 -8 -8 -27 -29 11 1 -30zm123 0l-28 0 1 30 -30 -11 -8 26 30 9 -20 25 24 17 17 -25 17 25 23 -17 -19 -25 30 -8 -8 -27 -30 11 1 -30zm124 0l-29 0 1 30 -29 -11 -9 26 30 9 -19 25 24 17 16 -25 17 25 24 -17 -20 -25 30 -8 -8 -27 -29 11 1 -30zm123 0l-28 0 1 30 -30 -11 -8 26 30 9 -20 25 24 17 17 -25 17 25 23 -17 -19 -25 30 -8 -8 -27 -30 11 1 -30z"/>
  <path class="fil5" d="M6723 7921l-28 0 1 31 -30 -11 -8 26 30 9 -20 25 24 17 17 -25 16 25 24 -18 -19 -24 30 -8 -9 -27 -29 11 1 -31zm124 0l-29 0 1 31 -30 -11 -8 26 30 9 -19 25 23 17 17 -25 17 25 24 -18 -20 -24 30 -8 -8 -27 -29 11 1 -31zm123 0l-28 0 1 31 -30 -11 -8 26 30 9 -20 25 24 17 17 -25 16 25 24 -18 -19 -24 30 -8 -9 -27 -29 11 1 -31zm124 0l-29 0 1 31 -30 -11 -8 26 30 9 -19 25 23 17 17 -25 17 25 24 -18 -20 -24 30 -8 -8 -27 -29 11 1 -31z"/>
  <path class="fil6" d="M7481 7119c79,0 144,65 144,144 0,80 -65,144 -144,144 -80,0 -144,-64 -144,-144 0,-79 64,-144 144,-144z"/>
  <path class="fil5" d="M3910 7353l41 0 0 -233 -169 0 0 52c0,131 -22,146 -47,143l0 39c4,0 9,1 14,1 37,0 72,-35 72,-166l0 -31 89 0 0 195zm101 0l38 0 0 -173 -38 0 0 173zm-3 -223c0,12 9,21 22,21 12,0 22,-9 22,-21 0,-11 -10,-20 -22,-20 -13,0 -22,9 -22,20zm95 223l82 0c44,0 70,-17 70,-51 0,-19 -8,-34 -24,-41 12,-8 19,-19 19,-35 0,-34 -25,-46 -73,-46l-74 0 0 173zm80 -71c22,0 33,5 33,19 0,13 -12,18 -34,18l-41 0 0 -37 42 0zm-7 -68c22,0 35,3 35,17 0,12 -9,18 -25,18l-45 0 0 -35 35 0zm155 139l92 -112 0 112 38 0 0 -173 -33 0 -92 113 0 -113 -38 0 0 173 33 0zm214 0l92 -112 0 112 38 0 0 -173 -33 0 -92 113 0 -113 -37 0 0 173 32 0zm-6 -246c1,34 26,52 59,52 30,0 56,-18 57,-52l-35 0c0,13 -7,22 -22,22 -16,0 -24,-9 -24,-22l-35 0zm388 246l38 0 0 -173 -38 0 0 68 -83 0 0 -68 -38 0 0 173 38 0 0 -70 83 0 0 70zm108 -123c17,-13 31,-19 50,-19 28,0 38,14 37,39 -8,-2 -23,-4 -35,-4 -46,0 -81,16 -81,55 0,33 25,54 63,54 25,0 43,-9 53,-21l0 19 38 0 0 -106c0,-45 -25,-71 -71,-71 -28,0 -56,10 -72,26l18 28zm42 92c-19,0 -32,-8 -32,-22 0,-17 18,-23 46,-23 12,0 24,3 31,5l0 17c-7,11 -22,23 -45,23zm134 31l144 0 0 40 35 0 0 -75 -23 0 0 -138 -38 0 0 138 -80 0 0 -138 -38 0 0 173zm218 0l38 0 0 -173 -38 0 0 173zm-3 -223c0,12 9,21 22,21 12,0 22,-9 22,-21 0,-11 -10,-20 -22,-20 -13,0 -22,9 -22,20zm88 136c0,52 38,90 92,90 55,0 93,-38 93,-90 0,-52 -38,-90 -93,-90 -55,0 -92,38 -92,90zm39 0c0,-34 23,-55 53,-55 30,0 54,22 54,55 0,34 -22,55 -54,55 -32,0 -53,-23 -53,-55zm311 87l38 0 0 -173 -38 0 0 68 -84 0 0 -68 -38 0 0 173 38 0 0 -70 84 0 0 70zm108 -123c17,-13 31,-19 50,-19 28,0 37,14 37,39 -8,-2 -23,-4 -36,-4 -46,0 -81,16 -81,55 0,33 25,54 63,54 26,0 44,-9 54,-21l0 19 38 0 0 -106c0,-45 -25,-71 -71,-71 -28,0 -56,10 -73,26l19 28zm42 92c-20,0 -32,-8 -32,-22 0,-17 18,-23 45,-23 13,0 25,3 32,5l0 17c-8,11 -22,23 -45,23zm253 31l38 0 0 -173 -136 0 0 49c0,81 -21,92 -39,90l3 36c43,3 73,-21 73,-113l0 -27 61 0 0 138zm93 0l38 0 0 -173 -38 0 0 173zm-3 -223c0,12 9,21 22,21 12,0 22,-9 22,-21 0,-11 -10,-20 -22,-20 -13,0 -22,9 -22,20zm160 227c45,0 78,-21 78,-58 0,-17 -5,-29 -23,-39 13,-10 17,-22 17,-35 0,-29 -24,-50 -70,-50 -42,0 -67,21 -78,40l27 18c11,-13 23,-24 49,-24 17,0 33,7 33,21 0,11 -10,19 -24,19l-36 0 0 33 38 0c18,0 28,5 28,17 0,15 -16,24 -39,24 -24,0 -41,-11 -51,-28l-29 20c16,26 39,42 80,42zm121 -4l38 0 0 -108 57 70 54 -69 0 107 38 0 0 -173 -32 0 -60 79 -61 -79 -34 0 0 173z"/>
  <path class="fil5" d="M6541 6943l-28 0 1 30 -30 -11 -8 27 30 8 -20 25 24 17 17 -25 17 25 23 -17 -19 -25 30 -8 -8 -27 -30 11 1 -30zm124 0l-29 0 1 30 -29 -11 -9 27 30 8 -19 25 23 17 17 -25 17 25 24 -17 -20 -25 30 -8 -8 -27 -29 11 1 -30zm123 0l-28 0 1 30 -30 -11 -8 27 30 8 -20 25 24 17 17 -25 17 25 23 -17 -19 -25 30 -8 -8 -27 -30 11 1 -30z"/>
  <path class="fil5" d="M11239 430l40 -9 -51 -228 -164 37 11 50c28,128 10,147 -15,150l8 38c4,-1 10,-1 14,-2 36,-8 63,-49 35,-177l-7 -31 87 -19 42 191zm84 -19l40 -7 -43 -230 -40 8 43 229zm221 -272l-169 25 35 230 91 -13c60,-9 91,-36 83,-87 -6,-43 -37,-64 -92,-56l-63 10 -8 -53 129 -19 -6 -37zm-54 138c34,-5 50,2 53,24 4,24 -12,37 -45,42l-54 8 -10 -66 56 -8zm137 86l175 -19 -4 -38 -135 15 -7 -61 124 -14 -4 -36 -124 13 -6 -58 132 -15 -4 -37 -172 18 25 232zm255 -21l-2 -80 53 -1c73,-2 96,-41 95,-80 -1,-37 -20,-76 -98,-74l-95 3 7 233 40 -1zm50 -197c40,-1 54,15 55,37 0,24 -16,40 -55,41l-53 1 -2 -78 55 -1zm90 190l42 0 23 -51 106 1 22 52 42 0 -100 -234 -30 0 -105 232zm119 -174l37 89 -76 -1 39 -88zm286 183l40 2 10 -233 -168 -8 -2 52c-6,131 -28,145 -54,140l-2 39c5,1 10,2 14,2 37,2 74,-31 80,-162l2 -31 89 4 -9 195zm87 8l40 4 20 -232 -40 -4 -20 232zm173 24c52,7 96,-16 102,-62 2,-21 -7,-44 -34,-56 21,-8 36,-23 38,-44 5,-42 -30,-70 -78,-76 -50,-6 -83,10 -105,34l28 25c17,-16 36,-26 67,-22 26,3 50,14 47,37 -2,18 -23,27 -51,24l-37 -5 -4 38 38 5c34,4 53,17 51,36 -3,19 -26,33 -58,29 -35,-4 -57,-19 -72,-43l-33 18c17,35 53,56 101,62zm127 13l39 8 33 -159 52 106 10 2 89 -77 -33 159 40 8 46 -229 -34 -7 -101 90 -60 -123 -34 -7 -47 229z"/>
  <path class="fil5" d="M13341 358c124,39 246,81 368,128 243,95 474,205 702,331l-49 87 256 3 -135 -218 -49 87c-47,-26 -94,-51 -142,-76 -304,-158 -614,-287 -939,-387 -31,-4 -35,36 -12,45z"/>
  <path class="fil5" d="M9710 690l-136 217 256 -2 -48 -87 22 -12c290,-158 586,-290 894,-395 21,-14 5,-48 -15,-45 -44,15 -89,31 -133,47 -259,97 -506,210 -749,341l-42 23 -49 -87z"/>
  <polygon class="fil5" points="13108,0 13080,0 13081,30 13051,20 13043,46 13072,54 13053,79 13077,96 13093,71 13110,96 13134,79 13114,55 13144,46 13136,20 13107,30 "/>
  <polygon class="fil5" points="9528,988 9500,988 9501,1019 9471,1008 9463,1034 9493,1043 9473,1068 9497,1085 9514,1060 9531,1084 9554,1067 9535,1043 9565,1035 9556,1008 9527,1019 "/>
  <path class="fil6" d="M8000 3135c80,0 145,65 145,144 0,80 -65,145 -145,145 -79,0 -144,-65 -144,-145 0,-79 65,-144 144,-144z"/>
  <path class="fil5" d="M6337 3402c52,0 94,-27 94,-74 0,-21 -12,-43 -41,-52 20,-10 33,-27 33,-48 0,-42 -39,-66 -87,-66 -50,0 -81,20 -100,46l31 22c14,-18 32,-30 63,-30 27,0 52,8 52,31 0,18 -20,30 -48,30l-37 0 0 38 39 0c34,0 54,11 54,29 0,20 -21,36 -54,36 -35,0 -59,-11 -76,-34l-31 22c21,33 59,50 108,50zm272 -59c-11,14 -28,23 -47,23 -28,0 -51,-14 -54,-41l129 0c1,-10 2,-19 2,-24 0,-48 -35,-80 -81,-80 -58,0 -89,40 -89,91 0,54 37,89 93,89 28,0 52,-11 70,-35l-23 -23zm-53 -87c24,0 41,12 44,36l-91 0c5,-22 21,-36 47,-36zm238 142l38 0 0 -173 -136 0 0 50c0,80 -21,91 -39,90l3 35c43,3 73,-21 73,-112l0 -27 61 0 0 137zm221 -55c-10,14 -27,23 -46,23 -28,0 -51,-14 -54,-41l129 0c1,-10 2,-19 2,-24 0,-48 -35,-80 -81,-80 -58,0 -89,40 -89,91 0,54 37,89 93,89 28,0 52,-11 70,-35l-24 -23zm-52 -87c24,0 41,12 44,36l-91 0c5,-22 21,-36 47,-36zm247 142l38 0 0 -173 -38 0 0 68 -83 0 0 -68 -38 0 0 173 38 0 0 -70 83 0 0 70zm93 0l38 0 0 -173 -38 0 0 173zm-3 -223c0,13 9,21 22,21 13,0 22,-8 22,-21 0,-11 -9,-20 -22,-20 -12,0 -22,9 -22,20z"/>
  <path class="fil6" d="M7499 4429c80,0 144,65 144,144 0,80 -64,144 -144,144 -79,0 -144,-64 -144,-144 0,-79 65,-144 144,-144z"/>
  <path class="fil5" d="M4119 4524l39 0 0 -41 166 0 0 41 39 0 0 -78 -29 0 0 -196 -164 0 0 34c0,104 -11,139 -26,162l-25 0 0 78zm89 -236l86 0 0 158 -108 0c14,-28 22,-71 22,-144l0 -14zm315 140c-10,14 -27,23 -46,23 -29,0 -51,-14 -54,-41l129 0c1,-11 2,-19 2,-25 0,-48 -35,-79 -82,-79 -57,0 -88,40 -88,90 0,55 37,90 92,90 29,0 53,-11 71,-35l-24 -23zm-52 -88c24,0 40,13 43,37l-90 0c5,-23 21,-37 47,-37zm126 143l38 0 0 -108 57 70 54 -69 0 107 38 0 0 -173 -32 0 -60 79 -61 -79 -34 0 0 173zm230 -87c0,52 39,90 93,90 55,0 93,-38 93,-90 0,-52 -38,-90 -93,-90 -55,0 -93,38 -93,90zm40 0c0,-34 23,-55 53,-55 30,0 54,22 54,55 0,34 -22,55 -54,55 -32,0 -53,-23 -53,-55zm189 87l38 0 0 -59 13 -12 66 71 49 0 -87 -95 84 -78 -50 0 -75 70 0 -70 -38 0 0 173zm198 67l38 0 0 -78c7,9 26,14 45,14 52,0 87,-39 87,-92 0,-52 -32,-88 -84,-88 -18,0 -37,6 -48,20l0 -16 -38 0 0 240zm82 -209c30,0 48,21 48,56 0,32 -20,54 -51,54 -17,0 -33,-7 -41,-21l0 -60c7,-15 22,-29 44,-29zm150 19c16,-13 30,-19 49,-19 28,0 38,14 38,39 -8,-2 -24,-4 -36,-4 -46,0 -81,16 -81,55 0,33 25,54 63,54 26,0 43,-9 54,-21l0 19 38 0 0 -106c0,-45 -26,-71 -71,-71 -29,0 -57,10 -73,26l19 28zm41 92c-19,0 -32,-8 -32,-22 0,-17 19,-23 46,-23 12,0 25,3 32,5l0 17c-8,11 -23,23 -46,23zm117 -107l63 0 0 138 38 0 0 -138 63 0 0 -35 -164 0 0 35zm231 138l92 -112 0 112 38 0 0 -173 -33 0 -92 113 0 -113 -38 0 0 173 33 0zm328 -173l-38 0 0 67c-7,10 -22,19 -38,19 -28,0 -40,-12 -40,-47l0 -39 -38 0 0 52c0,47 25,69 70,69 18,0 35,-6 46,-16l0 68 38 0 0 -173zm173 173l38 0 0 -173 -38 0 0 68 -83 0 0 -68 -38 0 0 173 38 0 0 -70 83 0 0 70zm123 0l92 -112 0 112 38 0 0 -173 -33 0 -92 113 0 -113 -38 0 0 173 33 0zm214 0l92 -112 0 112 38 0 0 -173 -33 0 -92 113 0 -113 -38 0 0 173 33 0zm-6 -247c0,35 26,52 59,52 30,0 56,-18 57,-52l-35 0c0,14 -7,23 -22,23 -16,0 -24,-9 -24,-23l-35 0zm-1879 547c-10,14 -24,24 -44,24 -35,0 -57,-23 -57,-54 0,-33 22,-55 53,-55 20,0 33,7 44,23l29 -19c-12,-23 -39,-39 -75,-39 -54,0 -91,39 -91,90 0,54 38,90 93,90 30,0 60,-15 75,-43l-27 -17zm45 -30c0,52 39,90 93,90 54,0 93,-38 93,-90 0,-52 -39,-90 -93,-90 -55,0 -93,38 -93,90zm39 0c0,-34 23,-55 54,-55 30,0 53,21 53,55 0,33 -22,54 -53,54 -32,0 -54,-23 -54,-54zm190 87l144 0 0 39 36 0 0 -75 -24 0 0 -137 -38 0 0 137 -80 0 0 -137 -38 0 0 173zm219 0l38 0 0 -173 -38 0 0 173zm-4 -223c0,12 9,20 23,20 12,0 22,-8 22,-20 0,-12 -10,-20 -22,-20 -13,0 -23,8 -23,20zm115 99c16,-12 30,-18 49,-18 28,0 38,14 38,39 -8,-3 -24,-5 -36,-5 -46,0 -81,17 -81,55 0,33 25,55 63,55 26,0 43,-10 54,-21l0 19 38 0 0 -106c0,-45 -26,-71 -71,-71 -29,0 -57,9 -73,25l19 28zm41 93c-19,0 -32,-9 -32,-22 0,-18 19,-23 46,-23 12,0 25,2 32,4l0 17c-8,12 -23,24 -46,24zm254 31l38 0 0 -173 -137 0 0 49c0,80 -20,91 -38,90l3 35c43,4 73,-20 73,-112l0 -27 61 0 0 138zm93 0l37 0 0 -173 -37 0 0 173zm-4 -223c0,12 9,20 23,20 12,0 21,-8 21,-20 0,-12 -9,-20 -21,-20 -13,0 -23,8 -23,20zm161 227c44,0 78,-22 78,-59 0,-17 -6,-29 -23,-39 12,-9 17,-21 17,-34 0,-30 -25,-50 -70,-50 -42,0 -67,20 -78,39l27 18c10,-12 23,-23 49,-23 17,0 33,7 33,21 0,11 -10,18 -24,18l-36 0 0 33 38 0c18,0 28,6 28,17 0,15 -16,24 -39,24 -24,0 -42,-11 -51,-27l-29 20c15,26 39,42 80,42zm121 -4l38 0 0 -109 57 71 53 -70 0 108 38 0 0 -173 -31 0 -61 78 -60 -78 -34 0 0 173z"/>
  <path class="fil5" d="M13197 4979l-28 0 1 30 -30 -11 -8 27 30 8 -20 25 24 17 17 -25 16 25 24 -17 -19 -25 29 -8 -8 -26 -29 10 1 -30zm124 0l-29 0 1 30 -30 -11 -8 27 30 8 -19 25 23 17 17 -25 17 25 24 -17 -20 -25 30 -8 -8 -26 -30 10 2 -30zm123 0l-28 0 1 30 -30 -11 -8 27 30 8 -20 25 24 17 17 -25 16 25 24 -17 -19 -25 29 -8 -8 -26 -29 10 1 -30zm124 0l-29 0 1 30 -30 -11 -8 27 30 8 -19 25 23 17 17 -25 17 25 24 -17 -20 -25 30 -8 -8 -26 -30 10 2 -30zm123 0l-28 0 1 30 -30 -11 -8 27 30 8 -20 25 24 17 17 -25 16 25 24 -17 -19 -25 29 -8 -8 -26 -29 10 1 -30z"/>
 </g>
</svg>
